<mxfile host="65bd71144e">
    <diagram id="96NKEoEJnGK9OO4_6m9S" name="Page-1">
        <mxGraphModel dx="20770" dy="9500" grid="1" gridSize="10" guides="1" tooltips="1" connect="1" arrows="1" fold="1" page="1" pageScale="1" pageWidth="850" pageHeight="1100" math="0" shadow="0">
            <root>
                <mxCell id="0"/>
                <mxCell id="1" parent="0"/>
                <mxCell id="413" value="reader (client side)" style="swimlane;whiteSpace=wrap;html=1;" parent="1" vertex="1">
                    <mxGeometry x="4820" y="210.75" width="200" height="367.5" as="geometry"/>
                </mxCell>
                <mxCell id="414" style="edgeStyle=none;html=1;exitX=0.5;exitY=1;exitDx=0;exitDy=0;" parent="413" source="415" target="417" edge="1">
                    <mxGeometry relative="1" as="geometry"/>
                </mxCell>
                <mxCell id="415" value="" style="ellipse;whiteSpace=wrap;html=1;fillColor=#000000;" parent="413" vertex="1">
                    <mxGeometry x="90" y="40" width="20" height="20" as="geometry"/>
                </mxCell>
                <mxCell id="416" style="edgeStyle=none;html=1;exitX=0.5;exitY=1;exitDx=0;exitDy=0;entryX=0.5;entryY=0;entryDx=0;entryDy=0;" parent="413" source="417" target="418" edge="1">
                    <mxGeometry relative="1" as="geometry"/>
                </mxCell>
                <mxCell id="417" value="Item Data Form" style="rounded=1;whiteSpace=wrap;html=1;" parent="413" vertex="1">
                    <mxGeometry x="30" y="90" width="140" height="30" as="geometry"/>
                </mxCell>
                <mxCell id="418" value="Submit Add" style="rounded=1;whiteSpace=wrap;html=1;" parent="413" vertex="1">
                    <mxGeometry x="30" y="150" width="140" height="30" as="geometry"/>
                </mxCell>
                <mxCell id="419" style="edgeStyle=none;html=1;exitX=0.5;exitY=0;exitDx=0;exitDy=0;entryX=0.5;entryY=1;entryDx=0;entryDy=0;" parent="413" source="420" target="422" edge="1">
                    <mxGeometry relative="1" as="geometry"/>
                </mxCell>
                <mxCell id="420" value="Success Notification" style="rounded=1;whiteSpace=wrap;html=1;" parent="413" vertex="1">
                    <mxGeometry x="30" y="320" width="140" height="30" as="geometry"/>
                </mxCell>
                <mxCell id="421" value="" style="ellipse;whiteSpace=wrap;html=1;fillColor=#000000;" parent="413" vertex="1">
                    <mxGeometry x="90" y="270" width="20" height="20" as="geometry"/>
                </mxCell>
                <mxCell id="422" value="" style="ellipse;whiteSpace=wrap;html=1;fillColor=none;" parent="413" vertex="1">
                    <mxGeometry x="85" y="265" width="30" height="30" as="geometry"/>
                </mxCell>
                <mxCell id="423" style="edgeStyle=none;html=1;exitX=0.5;exitY=1;exitDx=0;exitDy=0;entryX=0.5;entryY=0;entryDx=0;entryDy=0;" parent="413" source="424" target="422" edge="1">
                    <mxGeometry relative="1" as="geometry"/>
                </mxCell>
                <mxCell id="424" value="Error Notification" style="rounded=1;whiteSpace=wrap;html=1;" parent="413" vertex="1">
                    <mxGeometry x="30" y="207.5" width="140" height="30" as="geometry"/>
                </mxCell>
                <mxCell id="425" value="&lt;div&gt;SYSTEM (server side)&lt;/div&gt;" style="swimlane;whiteSpace=wrap;html=1;" parent="1" vertex="1">
                    <mxGeometry x="5020" y="210.75" width="200" height="367.5" as="geometry"/>
                </mxCell>
                <mxCell id="426" style="edgeStyle=none;html=1;" parent="425" source="427" edge="1">
                    <mxGeometry relative="1" as="geometry">
                        <mxPoint x="125" y="69.25" as="targetPoint"/>
                    </mxGeometry>
                </mxCell>
                <mxCell id="427" value="&lt;font style=&quot;font-size: 12px;&quot;&gt;is data complete ?&lt;/font&gt;" style="rhombus;whiteSpace=wrap;html=1;" parent="425" vertex="1">
                    <mxGeometry x="60" y="133.75" width="130" height="62.5" as="geometry"/>
                </mxCell>
                <mxCell id="428" value="Yes" style="text;html=1;align=center;verticalAlign=middle;resizable=0;points=[];autosize=1;strokeColor=none;fillColor=none;" parent="425" vertex="1">
                    <mxGeometry x="120" y="196.25" width="40" height="30" as="geometry"/>
                </mxCell>
                <mxCell id="429" value="No" style="text;html=1;align=center;verticalAlign=middle;resizable=0;points=[];autosize=1;strokeColor=none;fillColor=none;" parent="425" vertex="1">
                    <mxGeometry x="90" y="109.25" width="40" height="30" as="geometry"/>
                </mxCell>
                <mxCell id="431" value="Save Data in DB" style="rounded=1;whiteSpace=wrap;html=1;" parent="425" vertex="1">
                    <mxGeometry x="60" y="247.5" width="120" height="30" as="geometry"/>
                </mxCell>
                <mxCell id="432" style="edgeStyle=none;html=1;entryX=0.548;entryY=0.011;entryDx=0;entryDy=0;entryPerimeter=0;" parent="425" source="427" target="431" edge="1">
                    <mxGeometry relative="1" as="geometry"/>
                </mxCell>
                <mxCell id="433" style="edgeStyle=none;html=1;entryX=0;entryY=0.5;entryDx=0;entryDy=0;" parent="1" source="418" target="427" edge="1">
                    <mxGeometry relative="1" as="geometry"/>
                </mxCell>
                <mxCell id="434" value="&lt;b&gt;&lt;font style=&quot;font-size: 18px;&quot;&gt;Add Item (admin)&lt;/font&gt;&lt;/b&gt;" style="text;html=1;align=center;verticalAlign=middle;resizable=0;points=[];autosize=1;strokeColor=none;fillColor=none;" parent="1" vertex="1">
                    <mxGeometry x="4815" y="168.25" width="170" height="40" as="geometry"/>
                </mxCell>
                <mxCell id="475" style="edgeStyle=none;html=1;entryX=1;entryY=0.5;entryDx=0;entryDy=0;exitX=0.5;exitY=0;exitDx=0;exitDy=0;" parent="1" target="424" edge="1">
                    <mxGeometry relative="1" as="geometry">
                        <Array as="points">
                            <mxPoint x="5145" y="248.25"/>
                            <mxPoint x="5050" y="248.25"/>
                            <mxPoint x="5050" y="433.25"/>
                        </Array>
                        <mxPoint x="5145" y="278.25" as="sourcePoint"/>
                    </mxGeometry>
                </mxCell>
                <mxCell id="499" value="&lt;span style=&quot;font-size: 18px;&quot;&gt;&lt;b&gt;update item (admin)&lt;/b&gt;&lt;/span&gt;" style="text;html=1;align=center;verticalAlign=middle;resizable=0;points=[];autosize=1;strokeColor=none;fillColor=none;" parent="1" vertex="1">
                    <mxGeometry x="4805" y="846" width="190" height="40" as="geometry"/>
                </mxCell>
                <mxCell id="543" value="reader (client side)" style="swimlane;whiteSpace=wrap;html=1;" parent="1" vertex="1">
                    <mxGeometry x="4830" y="1468.5" width="200" height="430" as="geometry"/>
                </mxCell>
                <mxCell id="544" style="edgeStyle=none;html=1;exitX=0.5;exitY=1;exitDx=0;exitDy=0;" parent="543" source="545" target="547" edge="1">
                    <mxGeometry relative="1" as="geometry"/>
                </mxCell>
                <mxCell id="545" value="" style="ellipse;whiteSpace=wrap;html=1;fillColor=#000000;" parent="543" vertex="1">
                    <mxGeometry x="90" y="40" width="20" height="20" as="geometry"/>
                </mxCell>
                <mxCell id="546" style="edgeStyle=none;html=1;exitX=0.5;exitY=1;exitDx=0;exitDy=0;entryX=0.5;entryY=0;entryDx=0;entryDy=0;" parent="543" source="547" target="548" edge="1">
                    <mxGeometry relative="1" as="geometry"/>
                </mxCell>
                <mxCell id="547" value="Choose Book" style="rounded=1;whiteSpace=wrap;html=1;" parent="543" vertex="1">
                    <mxGeometry x="30" y="90" width="140" height="30" as="geometry"/>
                </mxCell>
                <mxCell id="548" value="Submit Delete" style="rounded=1;whiteSpace=wrap;html=1;" parent="543" vertex="1">
                    <mxGeometry x="30" y="150" width="140" height="30" as="geometry"/>
                </mxCell>
                <mxCell id="549" style="edgeStyle=none;html=1;exitX=0.5;exitY=0;exitDx=0;exitDy=0;entryX=0.5;entryY=1;entryDx=0;entryDy=0;" parent="543" source="550" target="552" edge="1">
                    <mxGeometry relative="1" as="geometry"/>
                </mxCell>
                <mxCell id="550" value="Error Notification" style="rounded=1;whiteSpace=wrap;html=1;" parent="543" vertex="1">
                    <mxGeometry x="50" y="320" width="120" height="30" as="geometry"/>
                </mxCell>
                <mxCell id="551" value="" style="ellipse;whiteSpace=wrap;html=1;fillColor=#000000;" parent="543" vertex="1">
                    <mxGeometry x="100" y="270" width="20" height="20" as="geometry"/>
                </mxCell>
                <mxCell id="552" value="" style="ellipse;whiteSpace=wrap;html=1;fillColor=none;" parent="543" vertex="1">
                    <mxGeometry x="95" y="265" width="30" height="30" as="geometry"/>
                </mxCell>
                <mxCell id="553" style="edgeStyle=none;html=1;exitX=0.5;exitY=1;exitDx=0;exitDy=0;entryX=0.5;entryY=0;entryDx=0;entryDy=0;" parent="543" source="554" target="552" edge="1">
                    <mxGeometry relative="1" as="geometry"/>
                </mxCell>
                <mxCell id="554" value="Success Notification" style="rounded=1;whiteSpace=wrap;html=1;" parent="543" vertex="1">
                    <mxGeometry x="50" y="207.5" width="120" height="30" as="geometry"/>
                </mxCell>
                <mxCell id="555" value="&lt;div&gt;SYSTEM (server side)&lt;/div&gt;" style="swimlane;whiteSpace=wrap;html=1;" parent="1" vertex="1">
                    <mxGeometry x="5030" y="1468.5" width="200" height="430" as="geometry"/>
                </mxCell>
                <mxCell id="556" style="edgeStyle=none;html=1;entryX=0.5;entryY=1;entryDx=0;entryDy=0;" parent="555" source="557" target="560" edge="1">
                    <mxGeometry relative="1" as="geometry"/>
                </mxCell>
                <mxCell id="557" value="&lt;font style=&quot;font-size: 10px;&quot;&gt;is borrow requests exist?&amp;nbsp;&lt;/font&gt;" style="rhombus;whiteSpace=wrap;html=1;" parent="555" vertex="1">
                    <mxGeometry x="60" y="133.75" width="130" height="62.5" as="geometry"/>
                </mxCell>
                <mxCell id="558" value="No" style="text;html=1;align=center;verticalAlign=middle;resizable=0;points=[];autosize=1;strokeColor=none;fillColor=none;" parent="555" vertex="1">
                    <mxGeometry x="120" y="103.75" width="40" height="30" as="geometry"/>
                </mxCell>
                <mxCell id="559" value="Yes" style="text;html=1;align=center;verticalAlign=middle;resizable=0;points=[];autosize=1;strokeColor=none;fillColor=none;" parent="555" vertex="1">
                    <mxGeometry x="120" y="200" width="40" height="30" as="geometry"/>
                </mxCell>
                <mxCell id="560" value="Delete Done" style="rounded=1;whiteSpace=wrap;html=1;" parent="555" vertex="1">
                    <mxGeometry x="90" y="67.5" width="70" height="30" as="geometry"/>
                </mxCell>
                <mxCell id="561" value="There are borrow requests online" style="rounded=1;whiteSpace=wrap;html=1;" parent="555" vertex="1">
                    <mxGeometry x="60" y="247.5" width="120" height="30" as="geometry"/>
                </mxCell>
                <mxCell id="562" style="edgeStyle=none;html=1;entryX=0.548;entryY=0.011;entryDx=0;entryDy=0;entryPerimeter=0;" parent="555" source="557" target="561" edge="1">
                    <mxGeometry relative="1" as="geometry"/>
                </mxCell>
                <mxCell id="563" style="edgeStyle=none;html=1;entryX=0;entryY=0.5;entryDx=0;entryDy=0;" parent="1" source="548" target="557" edge="1">
                    <mxGeometry relative="1" as="geometry"/>
                </mxCell>
                <mxCell id="564" value="&lt;span style=&quot;font-size: 18px;&quot;&gt;&lt;b&gt;Delete item&lt;/b&gt;&lt;/span&gt;" style="text;html=1;align=center;verticalAlign=middle;resizable=0;points=[];autosize=1;strokeColor=none;fillColor=none;" parent="1" vertex="1">
                    <mxGeometry x="4820" y="1423.5" width="120" height="40" as="geometry"/>
                </mxCell>
                <mxCell id="605" style="edgeStyle=none;html=1;entryX=1;entryY=0.5;entryDx=0;entryDy=0;exitX=0.5;exitY=0;exitDx=0;exitDy=0;" parent="1" source="560" target="554" edge="1">
                    <mxGeometry relative="1" as="geometry">
                        <Array as="points">
                            <mxPoint x="5155" y="1506"/>
                            <mxPoint x="5060" y="1506"/>
                            <mxPoint x="5060" y="1691"/>
                        </Array>
                    </mxGeometry>
                </mxCell>
                <mxCell id="606" style="edgeStyle=none;html=1;entryX=1;entryY=0.5;entryDx=0;entryDy=0;" parent="1" source="561" target="550" edge="1">
                    <mxGeometry relative="1" as="geometry">
                        <Array as="points">
                            <mxPoint x="5150" y="1806"/>
                        </Array>
                    </mxGeometry>
                </mxCell>
                <mxCell id="827" value="reader (client side)" style="swimlane;whiteSpace=wrap;html=1;" parent="1" vertex="1">
                    <mxGeometry x="4815" y="891" width="200" height="430" as="geometry"/>
                </mxCell>
                <mxCell id="828" style="edgeStyle=none;html=1;exitX=0.5;exitY=1;exitDx=0;exitDy=0;" parent="827" source="829" target="831" edge="1">
                    <mxGeometry relative="1" as="geometry"/>
                </mxCell>
                <mxCell id="829" value="" style="ellipse;whiteSpace=wrap;html=1;fillColor=#000000;" parent="827" vertex="1">
                    <mxGeometry x="90" y="40" width="20" height="20" as="geometry"/>
                </mxCell>
                <mxCell id="830" style="edgeStyle=none;html=1;exitX=0.5;exitY=1;exitDx=0;exitDy=0;entryX=0.5;entryY=0;entryDx=0;entryDy=0;" parent="827" source="831" target="832" edge="1">
                    <mxGeometry relative="1" as="geometry"/>
                </mxCell>
                <mxCell id="831" value="Book Data Board" style="rounded=1;whiteSpace=wrap;html=1;" parent="827" vertex="1">
                    <mxGeometry x="30" y="90" width="140" height="30" as="geometry"/>
                </mxCell>
                <mxCell id="832" value="Submit update" style="rounded=1;whiteSpace=wrap;html=1;" parent="827" vertex="1">
                    <mxGeometry x="30" y="150" width="140" height="30" as="geometry"/>
                </mxCell>
                <mxCell id="835" value="" style="ellipse;whiteSpace=wrap;html=1;fillColor=#000000;" parent="827" vertex="1">
                    <mxGeometry x="100" y="270" width="20" height="20" as="geometry"/>
                </mxCell>
                <mxCell id="836" value="" style="ellipse;whiteSpace=wrap;html=1;fillColor=none;" parent="827" vertex="1">
                    <mxGeometry x="95" y="265" width="30" height="30" as="geometry"/>
                </mxCell>
                <mxCell id="837" style="edgeStyle=none;html=1;exitX=0.5;exitY=1;exitDx=0;exitDy=0;entryX=0.5;entryY=0;entryDx=0;entryDy=0;" parent="827" source="838" target="836" edge="1">
                    <mxGeometry relative="1" as="geometry"/>
                </mxCell>
                <mxCell id="838" value="Error Notification" style="rounded=1;whiteSpace=wrap;html=1;" parent="827" vertex="1">
                    <mxGeometry x="50" y="207.5" width="120" height="30" as="geometry"/>
                </mxCell>
                <mxCell id="839" value="&lt;div&gt;SYSTEM (server side)&lt;/div&gt;" style="swimlane;whiteSpace=wrap;html=1;" parent="1" vertex="1">
                    <mxGeometry x="5015" y="891" width="200" height="430" as="geometry"/>
                </mxCell>
                <mxCell id="856" style="edgeStyle=none;html=1;entryX=1;entryY=1;entryDx=0;entryDy=0;" parent="839" source="841" target="844" edge="1">
                    <mxGeometry relative="1" as="geometry">
                        <Array as="points">
                            <mxPoint x="120" y="202.5"/>
                            <mxPoint x="170" y="202.5"/>
                        </Array>
                    </mxGeometry>
                </mxCell>
                <mxCell id="841" value="&lt;font style=&quot;font-size: 12px;&quot;&gt;is ISBN exist ?&lt;/font&gt;" style="rhombus;whiteSpace=wrap;html=1;" parent="839" vertex="1">
                    <mxGeometry x="60" y="230" width="130" height="62.5" as="geometry"/>
                </mxCell>
                <mxCell id="842" value="Yes" style="text;html=1;align=center;verticalAlign=middle;resizable=0;points=[];autosize=1;strokeColor=none;fillColor=none;" parent="839" vertex="1">
                    <mxGeometry x="130" y="103.75" width="40" height="30" as="geometry"/>
                </mxCell>
                <mxCell id="844" value="book is exist" style="rounded=1;whiteSpace=wrap;html=1;" parent="839" vertex="1">
                    <mxGeometry x="90" y="67.5" width="80" height="30" as="geometry"/>
                </mxCell>
                <mxCell id="845" value="Save Data in DB" style="rounded=1;whiteSpace=wrap;html=1;" parent="839" vertex="1">
                    <mxGeometry x="60" y="322.5" width="120" height="30" as="geometry"/>
                </mxCell>
                <mxCell id="846" style="edgeStyle=none;html=1;entryX=0.548;entryY=0.011;entryDx=0;entryDy=0;entryPerimeter=0;" parent="839" source="841" target="845" edge="1">
                    <mxGeometry relative="1" as="geometry"/>
                </mxCell>
                <mxCell id="849" style="edgeStyle=none;html=1;entryX=0.134;entryY=0;entryDx=0;entryDy=0;entryPerimeter=0;" parent="839" source="845" target="848" edge="1">
                    <mxGeometry relative="1" as="geometry"/>
                </mxCell>
                <mxCell id="834" value="Success Notification" style="rounded=1;whiteSpace=wrap;html=1;" parent="839" vertex="1">
                    <mxGeometry x="-150" y="376.75" width="120" height="30" as="geometry"/>
                </mxCell>
                <mxCell id="847" style="edgeStyle=none;html=1;" parent="839" source="848" edge="1">
                    <mxGeometry relative="1" as="geometry">
                        <mxPoint x="-20" y="387.5" as="targetPoint"/>
                    </mxGeometry>
                </mxCell>
                <mxCell id="848" value="Book update" style="rounded=1;whiteSpace=wrap;html=1;" parent="839" vertex="1">
                    <mxGeometry x="110" y="372.5" width="70" height="30" as="geometry"/>
                </mxCell>
                <mxCell id="853" value="Fietch Data From DB&amp;nbsp;" style="rounded=1;whiteSpace=wrap;html=1;" parent="839" vertex="1">
                    <mxGeometry x="50" y="150" width="90" height="30" as="geometry"/>
                </mxCell>
                <mxCell id="855" style="edgeStyle=none;html=1;entryX=0;entryY=0.5;entryDx=0;entryDy=0;exitX=0.08;exitY=1.14;exitDx=0;exitDy=0;exitPerimeter=0;" parent="839" source="853" target="841" edge="1">
                    <mxGeometry relative="1" as="geometry">
                        <mxPoint x="121.80000000000018" y="230.75" as="targetPoint"/>
                    </mxGeometry>
                </mxCell>
                <mxCell id="857" value="No" style="text;html=1;align=center;verticalAlign=middle;resizable=0;points=[];autosize=1;strokeColor=none;fillColor=none;" parent="839" vertex="1">
                    <mxGeometry x="130" y="292.5" width="40" height="30" as="geometry"/>
                </mxCell>
                <mxCell id="851" style="edgeStyle=none;html=1;entryX=1;entryY=0.5;entryDx=0;entryDy=0;exitX=0.5;exitY=0;exitDx=0;exitDy=0;" parent="1" source="844" target="838" edge="1">
                    <mxGeometry relative="1" as="geometry">
                        <Array as="points">
                            <mxPoint x="5140" y="928.5"/>
                            <mxPoint x="5045" y="928.5"/>
                            <mxPoint x="5045" y="1113.5"/>
                        </Array>
                    </mxGeometry>
                </mxCell>
                <mxCell id="833" style="edgeStyle=none;html=1;exitX=0.5;exitY=0;exitDx=0;exitDy=0;entryX=0.5;entryY=1;entryDx=0;entryDy=0;" parent="1" source="834" target="836" edge="1">
                    <mxGeometry relative="1" as="geometry"/>
                </mxCell>
                <mxCell id="854" style="edgeStyle=none;html=1;" parent="1" source="832" target="853" edge="1">
                    <mxGeometry relative="1" as="geometry"/>
                </mxCell>
                <mxCell id="1225" value="&lt;b&gt;&lt;font style=&quot;font-size: 18px;&quot;&gt;Item ( Book - Magazin _ Newspaper)&lt;/font&gt;&lt;/b&gt;" style="text;html=1;align=center;verticalAlign=middle;resizable=0;points=[];autosize=1;strokeColor=none;fillColor=none;" parent="1" vertex="1">
                    <mxGeometry x="4815" y="112.25" width="330" height="40" as="geometry"/>
                </mxCell>
                <mxCell id="1494" value="&lt;span style=&quot;font-family: monospace; font-size: 0px; text-align: start;&quot;&gt;%3CmxGraphModel%3E%3Croot%3E%3CmxCell%20id%3D%220%22%2F%3E%3CmxCell%20id%3D%221%22%20parent%3D%220%22%2F%3E%3CmxCell%20id%3D%222%22%20value%3D%22reader%20(client%20side)%22%20style%3D%22swimlane%3BwhiteSpace%3Dwrap%3Bhtml%3D1%3B%22%20vertex%3D%221%22%20parent%3D%221%22%3E%3CmxGeometry%20x%3D%222900%22%20y%3D%2292.5%22%20width%3D%22200%22%20height%3D%22430%22%20as%3D%22geometry%22%2F%3E%3C%2FmxCell%3E%3CmxCell%20id%3D%223%22%20style%3D%22edgeStyle%3Dnone%3Bhtml%3D1%3BexitX%3D0.5%3BexitY%3D1%3BexitDx%3D0%3BexitDy%3D0%3B%22%20edge%3D%221%22%20parent%3D%222%22%20source%3D%224%22%20target%3D%226%22%3E%3CmxGeometry%20relative%3D%221%22%20as%3D%22geometry%22%2F%3E%3C%2FmxCell%3E%3CmxCell%20id%3D%224%22%20value%3D%22%22%20style%3D%22ellipse%3BwhiteSpace%3Dwrap%3Bhtml%3D1%3BfillColor%3D%23000000%3B%22%20vertex%3D%221%22%20parent%3D%222%22%3E%3CmxGeometry%20x%3D%2290%22%20y%3D%2240%22%20width%3D%2220%22%20height%3D%2220%22%20as%3D%22geometry%22%2F%3E%3C%2FmxCell%3E%3CmxCell%20id%3D%225%22%20style%3D%22edgeStyle%3Dnone%3Bhtml%3D1%3BexitX%3D0.5%3BexitY%3D1%3BexitDx%3D0%3BexitDy%3D0%3BentryX%3D0.5%3BentryY%3D0%3BentryDx%3D0%3BentryDy%3D0%3B%22%20edge%3D%221%22%20parent%3D%222%22%20source%3D%226%22%20target%3D%227%22%3E%3CmxGeometry%20relative%3D%221%22%20as%3D%22geometry%22%2F%3E%3C%2FmxCell%3E%3CmxCell%20id%3D%226%22%20value%3D%22Book%20Data%20Board%22%20style%3D%22rounded%3D1%3BwhiteSpace%3Dwrap%3Bhtml%3D1%3B%22%20vertex%3D%221%22%20parent%3D%222%22%3E%3CmxGeometry%20x%3D%2230%22%20y%3D%2290%22%20width%3D%22140%22%20height%3D%2230%22%20as%3D%22geometry%22%2F%3E%3C%2FmxCell%3E%3CmxCell%20id%3D%227%22%20value%3D%22Submit%20Add%22%20style%3D%22rounded%3D1%3BwhiteSpace%3Dwrap%3Bhtml%3D1%3B%22%20vertex%3D%221%22%20parent%3D%222%22%3E%3CmxGeometry%20x%3D%2230%22%20y%3D%22150%22%20width%3D%22140%22%20height%3D%2230%22%20as%3D%22geometry%22%2F%3E%3C%2FmxCell%3E%3CmxCell%20id%3D%228%22%20style%3D%22edgeStyle%3Dnone%3Bhtml%3D1%3BexitX%3D0.5%3BexitY%3D0%3BexitDx%3D0%3BexitDy%3D0%3BentryX%3D0.5%3BentryY%3D1%3BentryDx%3D0%3BentryDy%3D0%3B%22%20edge%3D%221%22%20parent%3D%222%22%20source%3D%229%22%20target%3D%2211%22%3E%3CmxGeometry%20relative%3D%221%22%20as%3D%22geometry%22%2F%3E%3C%2FmxCell%3E%3CmxCell%20id%3D%229%22%20value%3D%22Success%20Notification%22%20style%3D%22rounded%3D1%3BwhiteSpace%3Dwrap%3Bhtml%3D1%3B%22%20vertex%3D%221%22%20parent%3D%222%22%3E%3CmxGeometry%20x%3D%2250%22%20y%3D%22320%22%20width%3D%22120%22%20height%3D%2230%22%20as%3D%22geometry%22%2F%3E%3C%2FmxCell%3E%3CmxCell%20id%3D%2210%22%20value%3D%22%22%20style%3D%22ellipse%3BwhiteSpace%3Dwrap%3Bhtml%3D1%3BfillColor%3D%23000000%3B%22%20vertex%3D%221%22%20parent%3D%222%22%3E%3CmxGeometry%20x%3D%22100%22%20y%3D%22270%22%20width%3D%2220%22%20height%3D%2220%22%20as%3D%22geometry%22%2F%3E%3C%2FmxCell%3E%3CmxCell%20id%3D%2211%22%20value%3D%22%22%20style%3D%22ellipse%3BwhiteSpace%3Dwrap%3Bhtml%3D1%3BfillColor%3Dnone%3B%22%20vertex%3D%221%22%20parent%3D%222%22%3E%3CmxGeometry%20x%3D%2295%22%20y%3D%22265%22%20width%3D%2230%22%20height%3D%2230%22%20as%3D%22geometry%22%2F%3E%3C%2FmxCell%3E%3CmxCell%20id%3D%2212%22%20style%3D%22edgeStyle%3Dnone%3Bhtml%3D1%3BexitX%3D0.5%3BexitY%3D1%3BexitDx%3D0%3BexitDy%3D0%3BentryX%3D0.5%3BentryY%3D0%3BentryDx%3D0%3BentryDy%3D0%3B%22%20edge%3D%221%22%20parent%3D%222%22%20source%3D%2213%22%20target%3D%2211%22%3E%3CmxGeometry%20relative%3D%221%22%20as%3D%22geometry%22%2F%3E%3C%2FmxCell%3E%3CmxCell%20id%3D%2213%22%20value%3D%22Error%20Notification%22%20style%3D%22rounded%3D1%3BwhiteSpace%3Dwrap%3Bhtml%3D1%3B%22%20vertex%3D%221%22%20parent%3D%222%22%3E%3CmxGeometry%20x%3D%2250%22%20y%3D%22207.5%22%20width%3D%22120%22%20height%3D%2230%22%20as%3D%22geometry%22%2F%3E%3C%2FmxCell%3E%3CmxCell%20id%3D%2214%22%20value%3D%22%26lt%3Bdiv%26gt%3BSYSTEM%20(server%20side)%26lt%3B%2Fdiv%26gt%3B%22%20style%3D%22swimlane%3BwhiteSpace%3Dwrap%3Bhtml%3D1%3B%22%20vertex%3D%221%22%20parent%3D%221%22%3E%3CmxGeometry%20x%3D%223100%22%20y%3D%2292.5%22%20width%3D%22200%22%20height%3D%22430%22%20as%3D%22geometry%22%2F%3E%3C%2FmxCell%3E%3CmxCell%20id%3D%2215%22%20style%3D%22edgeStyle%3Dnone%3Bhtml%3D1%3BentryX%3D0.5%3BentryY%3D1%3BentryDx%3D0%3BentryDy%3D0%3B%22%20edge%3D%221%22%20parent%3D%2214%22%20source%3D%2216%22%20target%3D%2219%22%3E%3CmxGeometry%20relative%3D%221%22%20as%3D%22geometry%22%2F%3E%3C%2FmxCell%3E%3CmxCell%20id%3D%2216%22%20value%3D%22%26lt%3Bfont%20style%3D%26quot%3Bfont-size%3A%2012px%3B%26quot%3B%26gt%3Bis%20ISBN%20exist%20%3F%26lt%3B%2Ffont%26gt%3B%22%20style%3D%22rhombus%3BwhiteSpace%3Dwrap%3Bhtml%3D1%3B%22%20vertex%3D%221%22%20parent%3D%2214%22%3E%3CmxGeometry%20x%3D%2260%22%20y%3D%22133.75%22%20width%3D%22130%22%20height%3D%2262.5%22%20as%3D%22geometry%22%2F%3E%3C%2FmxCell%3E%3CmxCell%20id%3D%2217%22%20value%3D%22Yes%22%20style%3D%22text%3Bhtml%3D1%3Balign%3Dcenter%3BverticalAlign%3Dmiddle%3Bresizable%3D0%3Bpoints%3D%5B%5D%3Bautosize%3D1%3BstrokeColor%3Dnone%3BfillColor%3Dnone%3B%22%20vertex%3D%221%22%20parent%3D%2214%22%3E%3CmxGeometry%20x%3D%22120%22%20y%3D%22103.75%22%20width%3D%2240%22%20height%3D%2230%22%20as%3D%22geometry%22%2F%3E%3C%2FmxCell%3E%3CmxCell%20id%3D%2218%22%20value%3D%22No%22%20style%3D%22text%3Bhtml%3D1%3Balign%3Dcenter%3BverticalAlign%3Dmiddle%3Bresizable%3D0%3Bpoints%3D%5B%5D%3Bautosize%3D1%3BstrokeColor%3Dnone%3BfillColor%3Dnone%3B%22%20vertex%3D%221%22%20parent%3D%2214%22%3E%3CmxGeometry%20x%3D%22120%22%20y%3D%22200%22%20width%3D%2240%22%20height%3D%2230%22%20as%3D%22geometry%22%2F%3E%3C%2FmxCell%3E%3CmxCell%20id%3D%2219%22%20value%3D%22book%20is%20exist%22%20style%3D%22rounded%3D1%3BwhiteSpace%3Dwrap%3Bhtml%3D1%3B%22%20vertex%3D%221%22%20parent%3D%2214%22%3E%3CmxGeometry%20x%3D%2290%22%20y%3D%2267.5%22%20width%3D%2270%22%20height%3D%2230%22%20as%3D%22geometry%22%2F%3E%3C%2FmxCell%3E%3CmxCell%20id%3D%2220%22%20value%3D%22Save%20Data%20in%20DB%22%20style%3D%22rounded%3D1%3BwhiteSpace%3Dwrap%3Bhtml%3D1%3B%22%20vertex%3D%221%22%20parent%3D%2214%22%3E%3CmxGeometry%20x%3D%2260%22%20y%3D%22247.5%22%20width%3D%22120%22%20height%3D%2230%22%20as%3D%22geometry%22%2F%3E%3C%2FmxCell%3E%3CmxCell%20id%3D%2221%22%20style%3D%22edgeStyle%3Dnone%3Bhtml%3D1%3BentryX%3D0.548%3BentryY%3D0.011%3BentryDx%3D0%3BentryDy%3D0%3BentryPerimeter%3D0%3B%22%20edge%3D%221%22%20parent%3D%2214%22%20source%3D%2216%22%20target%3D%2220%22%3E%3CmxGeometry%20relative%3D%221%22%20as%3D%22geometry%22%2F%3E%3C%2FmxCell%3E%3CmxCell%20id%3D%2222%22%20style%3D%22edgeStyle%3Dnone%3Bhtml%3D1%3B%22%20edge%3D%221%22%20parent%3D%2214%22%20source%3D%2223%22%3E%3CmxGeometry%20relative%3D%221%22%20as%3D%22geometry%22%3E%3CmxPoint%20x%3D%22-20%22%20y%3D%22330.75%22%20as%3D%22targetPoint%22%2F%3E%3C%2FmxGeometry%3E%3C%2FmxCell%3E%3CmxCell%20id%3D%2223%22%20value%3D%22Book%20add%22%20style%3D%22rounded%3D1%3BwhiteSpace%3Dwrap%3Bhtml%3D1%3B%22%20vertex%3D%221%22%20parent%3D%2214%22%3E%3CmxGeometry%20x%3D%22110%22%20y%3D%22315.75%22%20width%3D%2270%22%20height%3D%2230%22%20as%3D%22geometry%22%2F%3E%3C%2FmxCell%3E%3CmxCell%20id%3D%2224%22%20style%3D%22edgeStyle%3Dnone%3Bhtml%3D1%3BentryX%3D0.134%3BentryY%3D0%3BentryDx%3D0%3BentryDy%3D0%3BentryPerimeter%3D0%3B%22%20edge%3D%221%22%20parent%3D%2214%22%20source%3D%2220%22%20target%3D%2223%22%3E%3CmxGeometry%20relative%3D%221%22%20as%3D%22geometry%22%2F%3E%3C%2FmxCell%3E%3CmxCell%20id%3D%2225%22%20style%3D%22edgeStyle%3Dnone%3Bhtml%3D1%3BentryX%3D0%3BentryY%3D0.5%3BentryDx%3D0%3BentryDy%3D0%3B%22%20edge%3D%221%22%20source%3D%227%22%20target%3D%2216%22%20parent%3D%221%22%3E%3CmxGeometry%20relative%3D%221%22%20as%3D%22geometry%22%2F%3E%3C%2FmxCell%3E%3CmxCell%20id%3D%2226%22%20value%3D%22%26lt%3Bb%26gt%3B%26lt%3Bfont%20style%3D%26quot%3Bfont-size%3A%2018px%3B%26quot%3B%26gt%3BAdd%20Book%20(admin)%26lt%3B%2Ffont%26gt%3B%26lt%3B%2Fb%26gt%3B%22%20style%3D%22text%3Bhtml%3D1%3Balign%3Dcenter%3BverticalAlign%3Dmiddle%3Bresizable%3D0%3Bpoints%3D%5B%5D%3Bautosize%3D1%3BstrokeColor%3Dnone%3BfillColor%3Dnone%3B%22%20vertex%3D%221%22%20parent%3D%221%22%3E%3CmxGeometry%20x%3D%222890%22%20y%3D%2250%22%20width%3D%22180%22%20height%3D%2240%22%20as%3D%22geometry%22%2F%3E%3C%2FmxCell%3E%3CmxCell%20id%3D%2227%22%20style%3D%22edgeStyle%3Dnone%3Bhtml%3D1%3BentryX%3D1%3BentryY%3D0.5%3BentryDx%3D0%3BentryDy%3D0%3BexitX%3D0.5%3BexitY%3D0%3BexitDx%3D0%3BexitDy%3D0%3B%22%20edge%3D%221%22%20source%3D%2219%22%20target%3D%2213%22%20parent%3D%221%22%3E%3CmxGeometry%20relative%3D%221%22%20as%3D%22geometry%22%3E%3CArray%20as%3D%22points%22%3E%3CmxPoint%20x%3D%223225%22%20y%3D%22130%22%2F%3E%3CmxPoint%20x%3D%223130%22%20y%3D%22130%22%2F%3E%3CmxPoint%20x%3D%223130%22%20y%3D%22315%22%2F%3E%3C%2FArray%3E%3C%2FmxGeometry%3E%3C%2FmxCell%3E%3C%2Froot%3E%3C%2FmxGraphModel%3E&lt;/span&gt;" style="text;html=1;align=center;verticalAlign=middle;resizable=0;points=[];autosize=1;strokeColor=none;fillColor=none;" parent="1" vertex="1">
                    <mxGeometry x="4940" y="2048.75" width="20" height="30" as="geometry"/>
                </mxCell>
                <mxCell id="1495" value="Admin (client side)" style="swimlane;whiteSpace=wrap;html=1;" parent="1" vertex="1">
                    <mxGeometry x="4830" y="2056.75" width="200" height="310" as="geometry"/>
                </mxCell>
                <mxCell id="1496" style="edgeStyle=none;html=1;exitX=0.5;exitY=1;exitDx=0;exitDy=0;" parent="1495" source="1497" target="1499" edge="1">
                    <mxGeometry relative="1" as="geometry"/>
                </mxCell>
                <mxCell id="1497" value="" style="ellipse;whiteSpace=wrap;html=1;fillColor=#000000;" parent="1495" vertex="1">
                    <mxGeometry x="90" y="30" width="20" height="20" as="geometry"/>
                </mxCell>
                <mxCell id="1498" style="edgeStyle=none;html=1;exitX=0.5;exitY=1;exitDx=0;exitDy=0;entryX=0.5;entryY=0;entryDx=0;entryDy=0;" parent="1495" source="1499" target="1500" edge="1">
                    <mxGeometry relative="1" as="geometry"/>
                </mxCell>
                <mxCell id="1499" value="Choose Report Type" style="rounded=1;whiteSpace=wrap;html=1;" parent="1495" vertex="1">
                    <mxGeometry x="30" y="70" width="140" height="30" as="geometry"/>
                </mxCell>
                <mxCell id="1511" value="" style="edgeStyle=none;html=1;" parent="1495" source="1500" target="1510" edge="1">
                    <mxGeometry relative="1" as="geometry"/>
                </mxCell>
                <mxCell id="1500" value="Choose Time Period" style="rounded=1;whiteSpace=wrap;html=1;" parent="1495" vertex="1">
                    <mxGeometry x="30" y="120" width="140" height="30" as="geometry"/>
                </mxCell>
                <mxCell id="1501" style="edgeStyle=none;html=1;entryX=0.5;entryY=0;entryDx=0;entryDy=0;" parent="1495" source="1502" target="1504" edge="1">
                    <mxGeometry relative="1" as="geometry"/>
                </mxCell>
                <mxCell id="1502" value="Show report" style="rounded=1;whiteSpace=wrap;html=1;" parent="1495" vertex="1">
                    <mxGeometry x="30" y="220" width="140" height="30" as="geometry"/>
                </mxCell>
                <mxCell id="1503" value="" style="ellipse;whiteSpace=wrap;html=1;fillColor=#000000;" parent="1495" vertex="1">
                    <mxGeometry x="90" y="275" width="20" height="20" as="geometry"/>
                </mxCell>
                <mxCell id="1504" value="" style="ellipse;whiteSpace=wrap;html=1;fillColor=none;" parent="1495" vertex="1">
                    <mxGeometry x="85" y="270" width="30" height="30" as="geometry"/>
                </mxCell>
                <mxCell id="1510" value="Submit Apply" style="rounded=1;whiteSpace=wrap;html=1;" parent="1495" vertex="1">
                    <mxGeometry x="30" y="170" width="140" height="30" as="geometry"/>
                </mxCell>
                <mxCell id="1505" value="&lt;div&gt;SYSTEM (server side)&lt;/div&gt;" style="swimlane;whiteSpace=wrap;html=1;" parent="1" vertex="1">
                    <mxGeometry x="5030" y="2056.75" width="200" height="310" as="geometry"/>
                </mxCell>
                <mxCell id="1506" value="Gatharing Data" style="rounded=1;whiteSpace=wrap;html=1;" parent="1505" vertex="1">
                    <mxGeometry x="40" y="150" width="120" height="30" as="geometry"/>
                </mxCell>
                <mxCell id="1507" value="&lt;b&gt;&lt;font style=&quot;font-size: 18px;&quot;&gt;Show Reports (admin)&lt;/font&gt;&lt;/b&gt;" style="text;html=1;align=center;verticalAlign=middle;resizable=0;points=[];autosize=1;strokeColor=none;fillColor=none;" parent="1" vertex="1">
                    <mxGeometry x="4820" y="2016.75" width="210" height="40" as="geometry"/>
                </mxCell>
                <mxCell id="1513" style="edgeStyle=none;html=1;entryX=0.5;entryY=0;entryDx=0;entryDy=0;" parent="1" source="1510" target="1506" edge="1">
                    <mxGeometry relative="1" as="geometry">
                        <Array as="points">
                            <mxPoint x="5050" y="2236.75"/>
                            <mxPoint x="5050" y="2136.75"/>
                            <mxPoint x="5130" y="2136.75"/>
                        </Array>
                    </mxGeometry>
                </mxCell>
                <mxCell id="1514" style="edgeStyle=none;html=1;entryX=1.019;entryY=0.616;entryDx=0;entryDy=0;entryPerimeter=0;" parent="1" source="1506" target="1502" edge="1">
                    <mxGeometry relative="1" as="geometry">
                        <Array as="points">
                            <mxPoint x="5130" y="2296.75"/>
                        </Array>
                    </mxGeometry>
                </mxCell>
                <mxCell id="1838" value="&lt;span style=&quot;font-family: monospace; font-size: 0px; text-align: start;&quot;&gt;%3CmxGraphModel%3E%3Croot%3E%3CmxCell%20id%3D%220%22%2F%3E%3CmxCell%20id%3D%221%22%20parent%3D%220%22%2F%3E%3CmxCell%20id%3D%222%22%20value%3D%22reader%20(client%20side)%22%20style%3D%22swimlane%3BwhiteSpace%3Dwrap%3Bhtml%3D1%3B%22%20vertex%3D%221%22%20parent%3D%221%22%3E%3CmxGeometry%20x%3D%222900%22%20y%3D%2292.5%22%20width%3D%22200%22%20height%3D%22430%22%20as%3D%22geometry%22%2F%3E%3C%2FmxCell%3E%3CmxCell%20id%3D%223%22%20style%3D%22edgeStyle%3Dnone%3Bhtml%3D1%3BexitX%3D0.5%3BexitY%3D1%3BexitDx%3D0%3BexitDy%3D0%3B%22%20edge%3D%221%22%20parent%3D%222%22%20source%3D%224%22%20target%3D%226%22%3E%3CmxGeometry%20relative%3D%221%22%20as%3D%22geometry%22%2F%3E%3C%2FmxCell%3E%3CmxCell%20id%3D%224%22%20value%3D%22%22%20style%3D%22ellipse%3BwhiteSpace%3Dwrap%3Bhtml%3D1%3BfillColor%3D%23000000%3B%22%20vertex%3D%221%22%20parent%3D%222%22%3E%3CmxGeometry%20x%3D%2290%22%20y%3D%2240%22%20width%3D%2220%22%20height%3D%2220%22%20as%3D%22geometry%22%2F%3E%3C%2FmxCell%3E%3CmxCell%20id%3D%225%22%20style%3D%22edgeStyle%3Dnone%3Bhtml%3D1%3BexitX%3D0.5%3BexitY%3D1%3BexitDx%3D0%3BexitDy%3D0%3BentryX%3D0.5%3BentryY%3D0%3BentryDx%3D0%3BentryDy%3D0%3B%22%20edge%3D%221%22%20parent%3D%222%22%20source%3D%226%22%20target%3D%227%22%3E%3CmxGeometry%20relative%3D%221%22%20as%3D%22geometry%22%2F%3E%3C%2FmxCell%3E%3CmxCell%20id%3D%226%22%20value%3D%22Book%20Data%20Board%22%20style%3D%22rounded%3D1%3BwhiteSpace%3Dwrap%3Bhtml%3D1%3B%22%20vertex%3D%221%22%20parent%3D%222%22%3E%3CmxGeometry%20x%3D%2230%22%20y%3D%2290%22%20width%3D%22140%22%20height%3D%2230%22%20as%3D%22geometry%22%2F%3E%3C%2FmxCell%3E%3CmxCell%20id%3D%227%22%20value%3D%22Submit%20Add%22%20style%3D%22rounded%3D1%3BwhiteSpace%3Dwrap%3Bhtml%3D1%3B%22%20vertex%3D%221%22%20parent%3D%222%22%3E%3CmxGeometry%20x%3D%2230%22%20y%3D%22150%22%20width%3D%22140%22%20height%3D%2230%22%20as%3D%22geometry%22%2F%3E%3C%2FmxCell%3E%3CmxCell%20id%3D%228%22%20style%3D%22edgeStyle%3Dnone%3Bhtml%3D1%3BexitX%3D0.5%3BexitY%3D0%3BexitDx%3D0%3BexitDy%3D0%3BentryX%3D0.5%3BentryY%3D1%3BentryDx%3D0%3BentryDy%3D0%3B%22%20edge%3D%221%22%20parent%3D%222%22%20source%3D%229%22%20target%3D%2211%22%3E%3CmxGeometry%20relative%3D%221%22%20as%3D%22geometry%22%2F%3E%3C%2FmxCell%3E%3CmxCell%20id%3D%229%22%20value%3D%22Success%20Notification%22%20style%3D%22rounded%3D1%3BwhiteSpace%3Dwrap%3Bhtml%3D1%3B%22%20vertex%3D%221%22%20parent%3D%222%22%3E%3CmxGeometry%20x%3D%2250%22%20y%3D%22320%22%20width%3D%22120%22%20height%3D%2230%22%20as%3D%22geometry%22%2F%3E%3C%2FmxCell%3E%3CmxCell%20id%3D%2210%22%20value%3D%22%22%20style%3D%22ellipse%3BwhiteSpace%3Dwrap%3Bhtml%3D1%3BfillColor%3D%23000000%3B%22%20vertex%3D%221%22%20parent%3D%222%22%3E%3CmxGeometry%20x%3D%22100%22%20y%3D%22270%22%20width%3D%2220%22%20height%3D%2220%22%20as%3D%22geometry%22%2F%3E%3C%2FmxCell%3E%3CmxCell%20id%3D%2211%22%20value%3D%22%22%20style%3D%22ellipse%3BwhiteSpace%3Dwrap%3Bhtml%3D1%3BfillColor%3Dnone%3B%22%20vertex%3D%221%22%20parent%3D%222%22%3E%3CmxGeometry%20x%3D%2295%22%20y%3D%22265%22%20width%3D%2230%22%20height%3D%2230%22%20as%3D%22geometry%22%2F%3E%3C%2FmxCell%3E%3CmxCell%20id%3D%2212%22%20style%3D%22edgeStyle%3Dnone%3Bhtml%3D1%3BexitX%3D0.5%3BexitY%3D1%3BexitDx%3D0%3BexitDy%3D0%3BentryX%3D0.5%3BentryY%3D0%3BentryDx%3D0%3BentryDy%3D0%3B%22%20edge%3D%221%22%20parent%3D%222%22%20source%3D%2213%22%20target%3D%2211%22%3E%3CmxGeometry%20relative%3D%221%22%20as%3D%22geometry%22%2F%3E%3C%2FmxCell%3E%3CmxCell%20id%3D%2213%22%20value%3D%22Error%20Notification%22%20style%3D%22rounded%3D1%3BwhiteSpace%3Dwrap%3Bhtml%3D1%3B%22%20vertex%3D%221%22%20parent%3D%222%22%3E%3CmxGeometry%20x%3D%2250%22%20y%3D%22207.5%22%20width%3D%22120%22%20height%3D%2230%22%20as%3D%22geometry%22%2F%3E%3C%2FmxCell%3E%3CmxCell%20id%3D%2214%22%20value%3D%22%26lt%3Bdiv%26gt%3BSYSTEM%20(server%20side)%26lt%3B%2Fdiv%26gt%3B%22%20style%3D%22swimlane%3BwhiteSpace%3Dwrap%3Bhtml%3D1%3B%22%20vertex%3D%221%22%20parent%3D%221%22%3E%3CmxGeometry%20x%3D%223100%22%20y%3D%2292.5%22%20width%3D%22200%22%20height%3D%22430%22%20as%3D%22geometry%22%2F%3E%3C%2FmxCell%3E%3CmxCell%20id%3D%2215%22%20style%3D%22edgeStyle%3Dnone%3Bhtml%3D1%3BentryX%3D0.5%3BentryY%3D1%3BentryDx%3D0%3BentryDy%3D0%3B%22%20edge%3D%221%22%20parent%3D%2214%22%20source%3D%2216%22%20target%3D%2219%22%3E%3CmxGeometry%20relative%3D%221%22%20as%3D%22geometry%22%2F%3E%3C%2FmxCell%3E%3CmxCell%20id%3D%2216%22%20value%3D%22%26lt%3Bfont%20style%3D%26quot%3Bfont-size%3A%2012px%3B%26quot%3B%26gt%3Bis%20ISBN%20exist%20%3F%26lt%3B%2Ffont%26gt%3B%22%20style%3D%22rhombus%3BwhiteSpace%3Dwrap%3Bhtml%3D1%3B%22%20vertex%3D%221%22%20parent%3D%2214%22%3E%3CmxGeometry%20x%3D%2260%22%20y%3D%22133.75%22%20width%3D%22130%22%20height%3D%2262.5%22%20as%3D%22geometry%22%2F%3E%3C%2FmxCell%3E%3CmxCell%20id%3D%2217%22%20value%3D%22Yes%22%20style%3D%22text%3Bhtml%3D1%3Balign%3Dcenter%3BverticalAlign%3Dmiddle%3Bresizable%3D0%3Bpoints%3D%5B%5D%3Bautosize%3D1%3BstrokeColor%3Dnone%3BfillColor%3Dnone%3B%22%20vertex%3D%221%22%20parent%3D%2214%22%3E%3CmxGeometry%20x%3D%22120%22%20y%3D%22103.75%22%20width%3D%2240%22%20height%3D%2230%22%20as%3D%22geometry%22%2F%3E%3C%2FmxCell%3E%3CmxCell%20id%3D%2218%22%20value%3D%22No%22%20style%3D%22text%3Bhtml%3D1%3Balign%3Dcenter%3BverticalAlign%3Dmiddle%3Bresizable%3D0%3Bpoints%3D%5B%5D%3Bautosize%3D1%3BstrokeColor%3Dnone%3BfillColor%3Dnone%3B%22%20vertex%3D%221%22%20parent%3D%2214%22%3E%3CmxGeometry%20x%3D%22120%22%20y%3D%22200%22%20width%3D%2240%22%20height%3D%2230%22%20as%3D%22geometry%22%2F%3E%3C%2FmxCell%3E%3CmxCell%20id%3D%2219%22%20value%3D%22book%20is%20exist%22%20style%3D%22rounded%3D1%3BwhiteSpace%3Dwrap%3Bhtml%3D1%3B%22%20vertex%3D%221%22%20parent%3D%2214%22%3E%3CmxGeometry%20x%3D%2290%22%20y%3D%2267.5%22%20width%3D%2270%22%20height%3D%2230%22%20as%3D%22geometry%22%2F%3E%3C%2FmxCell%3E%3CmxCell%20id%3D%2220%22%20value%3D%22Save%20Data%20in%20DB%22%20style%3D%22rounded%3D1%3BwhiteSpace%3Dwrap%3Bhtml%3D1%3B%22%20vertex%3D%221%22%20parent%3D%2214%22%3E%3CmxGeometry%20x%3D%2260%22%20y%3D%22247.5%22%20width%3D%22120%22%20height%3D%2230%22%20as%3D%22geometry%22%2F%3E%3C%2FmxCell%3E%3CmxCell%20id%3D%2221%22%20style%3D%22edgeStyle%3Dnone%3Bhtml%3D1%3BentryX%3D0.548%3BentryY%3D0.011%3BentryDx%3D0%3BentryDy%3D0%3BentryPerimeter%3D0%3B%22%20edge%3D%221%22%20parent%3D%2214%22%20source%3D%2216%22%20target%3D%2220%22%3E%3CmxGeometry%20relative%3D%221%22%20as%3D%22geometry%22%2F%3E%3C%2FmxCell%3E%3CmxCell%20id%3D%2222%22%20style%3D%22edgeStyle%3Dnone%3Bhtml%3D1%3B%22%20edge%3D%221%22%20parent%3D%2214%22%20source%3D%2223%22%3E%3CmxGeometry%20relative%3D%221%22%20as%3D%22geometry%22%3E%3CmxPoint%20x%3D%22-20%22%20y%3D%22330.75%22%20as%3D%22targetPoint%22%2F%3E%3C%2FmxGeometry%3E%3C%2FmxCell%3E%3CmxCell%20id%3D%2223%22%20value%3D%22Book%20add%22%20style%3D%22rounded%3D1%3BwhiteSpace%3Dwrap%3Bhtml%3D1%3B%22%20vertex%3D%221%22%20parent%3D%2214%22%3E%3CmxGeometry%20x%3D%22110%22%20y%3D%22315.75%22%20width%3D%2270%22%20height%3D%2230%22%20as%3D%22geometry%22%2F%3E%3C%2FmxCell%3E%3CmxCell%20id%3D%2224%22%20style%3D%22edgeStyle%3Dnone%3Bhtml%3D1%3BentryX%3D0.134%3BentryY%3D0%3BentryDx%3D0%3BentryDy%3D0%3BentryPerimeter%3D0%3B%22%20edge%3D%221%22%20parent%3D%2214%22%20source%3D%2220%22%20target%3D%2223%22%3E%3CmxGeometry%20relative%3D%221%22%20as%3D%22geometry%22%2F%3E%3C%2FmxCell%3E%3CmxCell%20id%3D%2225%22%20style%3D%22edgeStyle%3Dnone%3Bhtml%3D1%3BentryX%3D0%3BentryY%3D0.5%3BentryDx%3D0%3BentryDy%3D0%3B%22%20edge%3D%221%22%20source%3D%227%22%20target%3D%2216%22%20parent%3D%221%22%3E%3CmxGeometry%20relative%3D%221%22%20as%3D%22geometry%22%2F%3E%3C%2FmxCell%3E%3CmxCell%20id%3D%2226%22%20value%3D%22%26lt%3Bb%26gt%3B%26lt%3Bfont%20style%3D%26quot%3Bfont-size%3A%2018px%3B%26quot%3B%26gt%3BAdd%20Book%20(admin)%26lt%3B%2Ffont%26gt%3B%26lt%3B%2Fb%26gt%3B%22%20style%3D%22text%3Bhtml%3D1%3Balign%3Dcenter%3BverticalAlign%3Dmiddle%3Bresizable%3D0%3Bpoints%3D%5B%5D%3Bautosize%3D1%3BstrokeColor%3Dnone%3BfillColor%3Dnone%3B%22%20vertex%3D%221%22%20parent%3D%221%22%3E%3CmxGeometry%20x%3D%222890%22%20y%3D%2250%22%20width%3D%22180%22%20height%3D%2240%22%20as%3D%22geometry%22%2F%3E%3C%2FmxCell%3E%3CmxCell%20id%3D%2227%22%20style%3D%22edgeStyle%3Dnone%3Bhtml%3D1%3BentryX%3D1%3BentryY%3D0.5%3BentryDx%3D0%3BentryDy%3D0%3BexitX%3D0.5%3BexitY%3D0%3BexitDx%3D0%3BexitDy%3D0%3B%22%20edge%3D%221%22%20source%3D%2219%22%20target%3D%2213%22%20parent%3D%221%22%3E%3CmxGeometry%20relative%3D%221%22%20as%3D%22geometry%22%3E%3CArray%20as%3D%22points%22%3E%3CmxPoint%20x%3D%223225%22%20y%3D%22130%22%2F%3E%3CmxPoint%20x%3D%223130%22%20y%3D%22130%22%2F%3E%3CmxPoint%20x%3D%223130%22%20y%3D%22315%22%2F%3E%3C%2FArray%3E%3C%2FmxGeometry%3E%3C%2FmxCell%3E%3C%2Froot%3E%3C%2FmxGraphModel%3E&lt;/span&gt;" style="text;html=1;align=center;verticalAlign=middle;resizable=0;points=[];autosize=1;strokeColor=none;fillColor=none;" parent="1" vertex="1">
                    <mxGeometry x="4864" y="2605" width="20" height="30" as="geometry"/>
                </mxCell>
                <mxCell id="1839" value="Admin (client side)" style="swimlane;whiteSpace=wrap;html=1;" parent="1" vertex="1">
                    <mxGeometry x="4545" y="2613" width="420" height="630" as="geometry"/>
                </mxCell>
                <mxCell id="1840" style="edgeStyle=none;html=1;exitX=0.5;exitY=1;exitDx=0;exitDy=0;" parent="1839" source="1841" target="1843" edge="1">
                    <mxGeometry relative="1" as="geometry"/>
                </mxCell>
                <mxCell id="1841" value="" style="ellipse;whiteSpace=wrap;html=1;fillColor=#000000;" parent="1839" vertex="1">
                    <mxGeometry x="190" y="30" width="20" height="20" as="geometry"/>
                </mxCell>
                <mxCell id="1864" style="edgeStyle=none;html=1;entryX=0.5;entryY=0;entryDx=0;entryDy=0;" parent="1839" source="1843" target="1862" edge="1">
                    <mxGeometry relative="1" as="geometry"/>
                </mxCell>
                <mxCell id="1843" value="readers Management Page" style="rounded=1;whiteSpace=wrap;html=1;" parent="1839" vertex="1">
                    <mxGeometry x="130" y="70" width="140" height="30" as="geometry"/>
                </mxCell>
                <mxCell id="1863" style="edgeStyle=none;html=1;entryX=0.5;entryY=0;entryDx=0;entryDy=0;" parent="1839" source="1862" target="1855" edge="1">
                    <mxGeometry relative="1" as="geometry"/>
                </mxCell>
                <mxCell id="1862" value="Select reader" style="rounded=1;whiteSpace=wrap;html=1;" parent="1839" vertex="1">
                    <mxGeometry x="130" y="130" width="140" height="30" as="geometry"/>
                </mxCell>
                <mxCell id="1855" value="" style="rounded=1;whiteSpace=wrap;html=1;fillColor=#330000;arcSize=0;" parent="1839" vertex="1">
                    <mxGeometry x="30" y="210" width="340" height="10" as="geometry"/>
                </mxCell>
                <mxCell id="1865" value="Update Password" style="rounded=1;whiteSpace=wrap;html=1;" parent="1839" vertex="1">
                    <mxGeometry x="200" y="250" width="80" height="30" as="geometry"/>
                </mxCell>
                <mxCell id="1866" style="edgeStyle=none;html=1;entryX=0.55;entryY=-0.024;entryDx=0;entryDy=0;entryPerimeter=0;exitX=0.633;exitY=1.031;exitDx=0;exitDy=0;exitPerimeter=0;" parent="1839" source="1855" target="1865" edge="1">
                    <mxGeometry relative="1" as="geometry"/>
                </mxCell>
                <mxCell id="3497" value="Update Type" style="rounded=1;whiteSpace=wrap;html=1;" parent="1839" vertex="1">
                    <mxGeometry x="110" y="250" width="80" height="30" as="geometry"/>
                </mxCell>
                <mxCell id="3498" value="Update Status" style="rounded=1;whiteSpace=wrap;html=1;" parent="1839" vertex="1">
                    <mxGeometry x="20" y="250" width="80" height="30" as="geometry"/>
                </mxCell>
                <mxCell id="3502" style="edgeStyle=none;html=1;entryX=0.55;entryY=-0.024;entryDx=0;entryDy=0;entryPerimeter=0;exitX=0.633;exitY=1.031;exitDx=0;exitDy=0;exitPerimeter=0;" parent="1839" edge="1">
                    <mxGeometry relative="1" as="geometry">
                        <mxPoint x="150.39000000000033" y="220.72000000000025" as="sourcePoint"/>
                        <mxPoint x="149.39000000000033" y="249.72000000000025" as="targetPoint"/>
                    </mxGeometry>
                </mxCell>
                <mxCell id="3503" style="edgeStyle=none;html=1;entryX=0.55;entryY=-0.024;entryDx=0;entryDy=0;entryPerimeter=0;exitX=0.633;exitY=1.031;exitDx=0;exitDy=0;exitPerimeter=0;" parent="1839" edge="1">
                    <mxGeometry relative="1" as="geometry">
                        <mxPoint x="60.5" y="220" as="sourcePoint"/>
                        <mxPoint x="59.5" y="249" as="targetPoint"/>
                    </mxGeometry>
                </mxCell>
                <mxCell id="1848" value="" style="ellipse;whiteSpace=wrap;html=1;fillColor=none;" parent="1839" vertex="1">
                    <mxGeometry x="105" y="520" width="30" height="30" as="geometry"/>
                </mxCell>
                <mxCell id="1847" value="" style="ellipse;whiteSpace=wrap;html=1;fillColor=#000000;" parent="1839" vertex="1">
                    <mxGeometry x="110" y="525" width="20" height="20" as="geometry"/>
                </mxCell>
                <mxCell id="1846" value="Success Notification&amp;nbsp;" style="rounded=1;whiteSpace=wrap;html=1;" parent="1839" vertex="1">
                    <mxGeometry x="50" y="570" width="140" height="30" as="geometry"/>
                </mxCell>
                <mxCell id="1845" style="edgeStyle=none;html=1;" parent="1839" source="1846" edge="1">
                    <mxGeometry relative="1" as="geometry">
                        <mxPoint x="120" y="550" as="targetPoint"/>
                    </mxGeometry>
                </mxCell>
                <mxCell id="3506" value="" style="rhombus;whiteSpace=wrap;html=1;" parent="1839" vertex="1">
                    <mxGeometry x="276" y="330" width="110" height="60" as="geometry"/>
                </mxCell>
                <mxCell id="3513" value="" style="edgeStyle=none;html=1;" parent="1839" target="3512" edge="1">
                    <mxGeometry relative="1" as="geometry">
                        <mxPoint x="330" y="390" as="sourcePoint"/>
                    </mxGeometry>
                </mxCell>
                <mxCell id="3508" value="&lt;font style=&quot;font-size: 9px;&quot;&gt;Borrow process&lt;br&gt;&amp;nbsp;inprogress&lt;/font&gt;" style="text;html=1;align=center;verticalAlign=middle;resizable=0;points=[];autosize=1;strokeColor=none;fillColor=none;" parent="1839" vertex="1">
                    <mxGeometry x="286" y="340" width="90" height="40" as="geometry"/>
                </mxCell>
                <mxCell id="3510" value="&lt;font size=&quot;1&quot;&gt;NO&lt;/font&gt;" style="text;html=1;align=center;verticalAlign=middle;resizable=0;points=[];autosize=1;strokeColor=none;fillColor=none;" parent="1839" vertex="1">
                    <mxGeometry x="377" y="338" width="40" height="30" as="geometry"/>
                </mxCell>
                <mxCell id="3509" style="edgeStyle=none;html=1;entryX=0;entryY=0.158;entryDx=0;entryDy=0;entryPerimeter=0;" parent="1839" target="1867" edge="1">
                    <mxGeometry relative="1" as="geometry">
                        <mxPoint x="386" y="359.9499999999998" as="sourcePoint"/>
                        <mxPoint x="546" y="359.96999999999935" as="targetPoint"/>
                    </mxGeometry>
                </mxCell>
                <mxCell id="3514" value="" style="edgeStyle=none;html=1;entryX=1;entryY=0.5;entryDx=0;entryDy=0;" parent="1839" source="3512" target="1848" edge="1">
                    <mxGeometry relative="1" as="geometry"/>
                </mxCell>
                <mxCell id="3512" value="failed&lt;font color=&quot;#000000&quot;&gt;&amp;nbsp;Notification&amp;nbsp;&lt;/font&gt;" style="whiteSpace=wrap;html=1;" parent="1839" vertex="1">
                    <mxGeometry x="271" y="520" width="120" height="30" as="geometry"/>
                </mxCell>
                <mxCell id="1850" value="&lt;div&gt;SYSTEM (server side)&lt;/div&gt;" style="swimlane;whiteSpace=wrap;html=1;" parent="1" vertex="1">
                    <mxGeometry x="4965" y="2613" width="310" height="630" as="geometry"/>
                </mxCell>
                <mxCell id="1849" value="Submit Delete" style="rounded=1;whiteSpace=wrap;html=1;" parent="1850" vertex="1">
                    <mxGeometry x="-119" y="250" width="80" height="30" as="geometry"/>
                </mxCell>
                <mxCell id="1851" value="Process In DB" style="rounded=1;whiteSpace=wrap;html=1;" parent="1850" vertex="1">
                    <mxGeometry x="180" y="410" width="120" height="30" as="geometry"/>
                </mxCell>
                <mxCell id="1870" style="edgeStyle=none;html=1;exitX=1;exitY=0.5;exitDx=0;exitDy=0;" parent="1850" source="1867" edge="1">
                    <mxGeometry relative="1" as="geometry">
                        <mxPoint x="180" y="425" as="targetPoint"/>
                    </mxGeometry>
                </mxCell>
                <mxCell id="1867" value="" style="rounded=1;whiteSpace=wrap;html=1;fillColor=#330000;arcSize=0;" parent="1850" vertex="1">
                    <mxGeometry x="140" y="330" width="9" height="190" as="geometry"/>
                </mxCell>
                <mxCell id="1852" value="&lt;span style=&quot;font-size: 18px;&quot;&gt;&lt;b&gt;Update Reader Info (Admin)&lt;/b&gt;&lt;/span&gt;" style="text;html=1;align=center;verticalAlign=middle;resizable=0;points=[];autosize=1;strokeColor=none;fillColor=none;" parent="1" vertex="1">
                    <mxGeometry x="4744" y="2573" width="260" height="40" as="geometry"/>
                </mxCell>
                <mxCell id="1859" style="edgeStyle=none;html=1;entryX=0.5;entryY=0;entryDx=0;entryDy=0;exitX=0.879;exitY=0.925;exitDx=0;exitDy=0;exitPerimeter=0;" parent="1" source="1855" target="1849" edge="1">
                    <mxGeometry relative="1" as="geometry"/>
                </mxCell>
                <mxCell id="1869" style="edgeStyle=none;html=1;entryX=0.01;entryY=0.431;entryDx=0;entryDy=0;entryPerimeter=0;" parent="1" source="1865" target="1867" edge="1">
                    <mxGeometry relative="1" as="geometry">
                        <Array as="points">
                            <mxPoint x="4785" y="3025"/>
                        </Array>
                    </mxGeometry>
                </mxCell>
                <mxCell id="3431" value="" style="edgeStyle=none;orthogonalLoop=1;jettySize=auto;html=1;dashed=1;endArrow=none;endFill=0;" parent="1" edge="1">
                    <mxGeometry width="80" relative="1" as="geometry">
                        <mxPoint x="5428.2" y="2143.84" as="sourcePoint"/>
                        <mxPoint x="5428" y="2311.46" as="targetPoint"/>
                        <Array as="points"/>
                    </mxGeometry>
                </mxCell>
                <mxCell id="3434" value="" style="edgeStyle=none;orthogonalLoop=1;jettySize=auto;html=1;dashed=1;endArrow=none;endFill=0;exitX=1.003;exitY=0.889;exitDx=0;exitDy=0;exitPerimeter=0;" parent="1" source="3446" edge="1">
                    <mxGeometry width="80" relative="1" as="geometry">
                        <mxPoint x="5551" y="2272.27" as="sourcePoint"/>
                        <mxPoint x="5553" y="2311.46" as="targetPoint"/>
                        <Array as="points"/>
                    </mxGeometry>
                </mxCell>
                <mxCell id="3435" value="" style="edgeStyle=none;orthogonalLoop=1;jettySize=auto;html=1;" parent="1" edge="1">
                    <mxGeometry width="80" relative="1" as="geometry">
                        <mxPoint x="5428" y="2164.71" as="sourcePoint"/>
                        <mxPoint x="5553" y="2164.96" as="targetPoint"/>
                        <Array as="points"/>
                    </mxGeometry>
                </mxCell>
                <mxCell id="3437" value="" style="edgeStyle=none;orthogonalLoop=1;jettySize=auto;html=1;" parent="1" edge="1">
                    <mxGeometry width="80" relative="1" as="geometry">
                        <mxPoint x="5679" y="2271.8" as="sourcePoint"/>
                        <mxPoint x="5839" y="2271.8" as="targetPoint"/>
                        <Array as="points"/>
                    </mxGeometry>
                </mxCell>
                <mxCell id="3438" value="" style="edgeStyle=none;orthogonalLoop=1;jettySize=auto;html=1;dashed=1;dashPattern=8 8;" parent="1" edge="1">
                    <mxGeometry width="80" relative="1" as="geometry">
                        <mxPoint x="5837" y="2281.96" as="sourcePoint"/>
                        <mxPoint x="5430" y="2281.46" as="targetPoint"/>
                        <Array as="points"/>
                    </mxGeometry>
                </mxCell>
                <mxCell id="3439" value="" style="edgeStyle=none;orthogonalLoop=1;jettySize=auto;html=1;dashed=1;endArrow=none;endFill=0;" parent="1" edge="1">
                    <mxGeometry width="80" relative="1" as="geometry">
                        <mxPoint x="5553" y="2152.6400000000003" as="sourcePoint"/>
                        <mxPoint x="5552.577452153109" y="2166.77" as="targetPoint"/>
                        <Array as="points"/>
                    </mxGeometry>
                </mxCell>
                <mxCell id="3440" value="" style="edgeStyle=none;orthogonalLoop=1;jettySize=auto;html=1;dashed=1;dashPattern=8 8;" parent="1" edge="1">
                    <mxGeometry width="80" relative="1" as="geometry">
                        <mxPoint x="5683" y="2254.63" as="sourcePoint"/>
                        <mxPoint x="5424" y="2254.3" as="targetPoint"/>
                        <Array as="points"/>
                    </mxGeometry>
                </mxCell>
                <mxCell id="3442" value="Admin" style="shape=umlActor;verticalLabelPosition=bottom;verticalAlign=top;html=1;" parent="1" vertex="1">
                    <mxGeometry x="5413" y="2054.59" width="30" height="60" as="geometry"/>
                </mxCell>
                <mxCell id="3446" value="Generate_reports()" style="text;html=1;align=center;verticalAlign=middle;resizable=0;points=[];autosize=1;strokeColor=none;fillColor=none;" parent="1" vertex="1">
                    <mxGeometry x="5423" y="2140.09" width="130" height="30" as="geometry"/>
                </mxCell>
                <mxCell id="3448" value="&lt;font style=&quot;font-size: 9px;&quot;&gt;Send Notification&lt;/font&gt;" style="text;html=1;align=center;verticalAlign=middle;resizable=0;points=[];autosize=1;strokeColor=none;fillColor=none;" parent="1" vertex="1">
                    <mxGeometry x="5749" y="2246.4599999999996" width="90" height="30" as="geometry"/>
                </mxCell>
                <mxCell id="3459" value="" style="edgeStyle=none;orthogonalLoop=1;jettySize=auto;html=1;dashed=1;endArrow=none;endFill=0;" parent="1" edge="1">
                    <mxGeometry width="80" relative="1" as="geometry">
                        <mxPoint x="5678.27" y="2154.46" as="sourcePoint"/>
                        <mxPoint x="5678.01734232275" y="2315.81" as="targetPoint"/>
                        <Array as="points"/>
                    </mxGeometry>
                </mxCell>
                <mxCell id="3473" value="gatharing_Data()" style="text;html=1;align=center;verticalAlign=middle;resizable=0;points=[];autosize=1;strokeColor=none;fillColor=none;" parent="1" vertex="1">
                    <mxGeometry x="5591" y="2211.8" width="110" height="30" as="geometry"/>
                </mxCell>
                <mxCell id="3504" style="edgeStyle=none;html=1;entryX=-0.151;entryY=0.652;entryDx=0;entryDy=0;entryPerimeter=0;" parent="1" source="3497" target="1867" edge="1">
                    <mxGeometry relative="1" as="geometry">
                        <Array as="points">
                            <mxPoint x="4695" y="3067"/>
                        </Array>
                    </mxGeometry>
                </mxCell>
                <mxCell id="3505" style="edgeStyle=none;html=1;entryX=0.141;entryY=0.909;entryDx=0;entryDy=0;entryPerimeter=0;" parent="1" source="3498" target="1867" edge="1">
                    <mxGeometry relative="1" as="geometry">
                        <Array as="points">
                            <mxPoint x="4605" y="3116"/>
                        </Array>
                    </mxGeometry>
                </mxCell>
                <mxCell id="1871" style="edgeStyle=none;html=1;entryX=1;entryY=0.5;entryDx=0;entryDy=0;" parent="1" source="1851" target="1846" edge="1">
                    <mxGeometry relative="1" as="geometry">
                        <Array as="points">
                            <mxPoint x="5195" y="3198"/>
                        </Array>
                    </mxGeometry>
                </mxCell>
                <mxCell id="3507" style="edgeStyle=none;html=1;entryX=0.5;entryY=0;entryDx=0;entryDy=0;" parent="1" source="1849" target="3506" edge="1">
                    <mxGeometry relative="1" as="geometry"/>
                </mxCell>
                <mxCell id="610" style="edgeStyle=none;html=1;entryX=1;entryY=0.25;entryDx=0;entryDy=0;exitX=0.667;exitY=1.054;exitDx=0;exitDy=0;exitPerimeter=0;" parent="1" source="431" target="420" edge="1">
                    <mxGeometry relative="1" as="geometry">
                        <Array as="points">
                            <mxPoint x="5160" y="541.25"/>
                        </Array>
                        <mxPoint x="5122.699999999999" y="541.74" as="targetPoint"/>
                    </mxGeometry>
                </mxCell>
                <mxCell id="4840" value="&lt;span style=&quot;color: rgb(63, 63, 63); text-wrap-mode: nowrap;&quot;&gt;&lt;font style=&quot;font-size: 18px;&quot;&gt;Admin&lt;/font&gt;&lt;/span&gt;" style="whiteSpace=wrap;html=1;" parent="1" vertex="1">
                    <mxGeometry x="5504.75" y="2101.05" width="100.5" height="40" as="geometry"/>
                </mxCell>
                <mxCell id="4841" value="&lt;span style=&quot;color: rgb(63, 63, 63); text-wrap-mode: nowrap;&quot;&gt;&lt;font style=&quot;font-size: 18px;&quot;&gt;Activity log&lt;/font&gt;&lt;/span&gt;" style="whiteSpace=wrap;html=1;" parent="1" vertex="1">
                    <mxGeometry x="5641.5" y="2101.05" width="100.5" height="40" as="geometry"/>
                </mxCell>
                <mxCell id="4842" value="&lt;span style=&quot;color: rgb(63, 63, 63); text-wrap-mode: nowrap;&quot;&gt;&lt;font style=&quot;font-size: 18px;&quot;&gt;Notification&lt;/font&gt;&lt;/span&gt;" style="whiteSpace=wrap;html=1;" parent="1" vertex="1">
                    <mxGeometry x="5789.5" y="2100.09" width="100.5" height="40" as="geometry"/>
                </mxCell>
                <mxCell id="4843" value="" style="edgeStyle=none;orthogonalLoop=1;jettySize=auto;html=1;dashed=1;endArrow=none;endFill=0;" parent="1" edge="1">
                    <mxGeometry width="80" relative="1" as="geometry">
                        <mxPoint x="5839.6" y="2155.3" as="sourcePoint"/>
                        <mxPoint x="5840" y="2311.46" as="targetPoint"/>
                        <Array as="points"/>
                    </mxGeometry>
                </mxCell>
                <mxCell id="4846" value="" style="edgeStyle=none;orthogonalLoop=1;jettySize=auto;html=1;" parent="1" edge="1">
                    <mxGeometry width="80" relative="1" as="geometry">
                        <mxPoint x="5552" y="2183.46" as="sourcePoint"/>
                        <mxPoint x="5679.5" y="2184.91" as="targetPoint"/>
                        <Array as="points"/>
                    </mxGeometry>
                </mxCell>
                <mxCell id="4847" value="Generate_reports()" style="text;html=1;align=center;verticalAlign=middle;resizable=0;points=[];autosize=1;strokeColor=none;fillColor=none;" parent="1" vertex="1">
                    <mxGeometry x="5553" y="2160.21" width="130" height="30" as="geometry"/>
                </mxCell>
                <mxCell id="4848" value="" style="edgeStyle=orthogonalEdgeStyle;orthogonalLoop=1;jettySize=auto;html=1;curved=1;" parent="1" edge="1">
                    <mxGeometry width="80" relative="1" as="geometry">
                        <mxPoint x="5677.5" y="2211.78" as="sourcePoint"/>
                        <mxPoint x="5677.5" y="2241.78" as="targetPoint"/>
                        <Array as="points">
                            <mxPoint x="5677.5" y="2212.78"/>
                            <mxPoint x="5707.5" y="2212.78"/>
                        </Array>
                    </mxGeometry>
                </mxCell>
                <mxCell id="4849" value="" style="rounded=1;whiteSpace=wrap;html=1;arcSize=0;fillColor=#E6E6E6;" parent="1" vertex="1">
                    <mxGeometry x="5561.5" y="281.43" width="10" height="298.38" as="geometry"/>
                </mxCell>
                <mxCell id="4850" value="Actor" style="shape=umlActor;verticalLabelPosition=bottom;verticalAlign=top;html=1;" parent="1" vertex="1">
                    <mxGeometry x="5433" y="171.81" width="30" height="60" as="geometry"/>
                </mxCell>
                <mxCell id="4851" value="" style="edgeStyle=none;orthogonalLoop=1;jettySize=auto;html=1;dashed=1;endArrow=none;endFill=0;" parent="1" edge="1">
                    <mxGeometry width="80" relative="1" as="geometry">
                        <mxPoint x="5448.2" y="261.06" as="sourcePoint"/>
                        <mxPoint x="5448" y="589.81" as="targetPoint"/>
                        <Array as="points"/>
                    </mxGeometry>
                </mxCell>
                <mxCell id="4852" value="" style="edgeStyle=none;orthogonalLoop=1;jettySize=auto;html=1;" parent="1" edge="1">
                    <mxGeometry width="80" relative="1" as="geometry">
                        <mxPoint x="5447.5" y="281.43" as="sourcePoint"/>
                        <mxPoint x="5568.5" y="282.18" as="targetPoint"/>
                        <Array as="points"/>
                    </mxGeometry>
                </mxCell>
                <mxCell id="4853" value="" style="edgeStyle=none;orthogonalLoop=1;jettySize=auto;html=1;dashed=1;endArrow=none;endFill=0;" parent="1" edge="1">
                    <mxGeometry width="80" relative="1" as="geometry">
                        <mxPoint x="5913" y="249.81" as="sourcePoint"/>
                        <mxPoint x="5913" y="589.81" as="targetPoint"/>
                        <Array as="points"/>
                    </mxGeometry>
                </mxCell>
                <mxCell id="4854" value="" style="edgeStyle=none;orthogonalLoop=1;jettySize=auto;html=1;dashed=1;endArrow=none;endFill=0;" parent="1" edge="1">
                    <mxGeometry width="80" relative="1" as="geometry">
                        <mxPoint x="6033" y="254.68" as="sourcePoint"/>
                        <mxPoint x="6033" y="589.81" as="targetPoint"/>
                        <Array as="points"/>
                    </mxGeometry>
                </mxCell>
                <mxCell id="4855" value="&lt;font style=&quot;font-size: 10px;&quot;&gt;Submit add book&lt;/font&gt;" style="text;html=1;align=center;verticalAlign=middle;resizable=0;points=[];autosize=1;strokeColor=none;fillColor=none;" parent="1" vertex="1">
                    <mxGeometry x="5455" y="254.68" width="100" height="30" as="geometry"/>
                </mxCell>
                <mxCell id="4856" value="" style="edgeStyle=none;orthogonalLoop=1;jettySize=auto;html=1;dashed=1;endArrow=none;endFill=0;exitX=0.443;exitY=1.01;exitDx=0;exitDy=0;exitPerimeter=0;" parent="1" source="4869" target="4849" edge="1">
                    <mxGeometry width="80" relative="1" as="geometry">
                        <mxPoint x="5567.5" y="259.56" as="sourcePoint"/>
                        <mxPoint x="5568" y="620.81" as="targetPoint"/>
                        <Array as="points"/>
                    </mxGeometry>
                </mxCell>
                <mxCell id="4857" value="" style="edgeStyle=none;orthogonalLoop=1;jettySize=auto;html=1;dashed=1;endArrow=none;endFill=0;" parent="1" edge="1">
                    <mxGeometry width="80" relative="1" as="geometry">
                        <mxPoint x="5794.448586118251" y="308.06" as="sourcePoint"/>
                        <mxPoint x="5793" y="589.81" as="targetPoint"/>
                        <Array as="points"/>
                    </mxGeometry>
                </mxCell>
                <mxCell id="4858" value="" style="edgeStyle=none;orthogonalLoop=1;jettySize=auto;html=1;" parent="1" edge="1">
                    <mxGeometry width="80" relative="1" as="geometry">
                        <mxPoint x="5571.5" y="293.31" as="sourcePoint"/>
                        <mxPoint x="5793" y="293.81" as="targetPoint"/>
                        <Array as="points"/>
                    </mxGeometry>
                </mxCell>
                <mxCell id="4861" value="" style="edgeStyle=none;orthogonalLoop=1;jettySize=auto;html=1;exitX=1.03;exitY=0.152;exitDx=0;exitDy=0;exitPerimeter=0;" parent="1" edge="1">
                    <mxGeometry width="80" relative="1" as="geometry">
                        <mxPoint x="5794" y="388.59000000000003" as="sourcePoint"/>
                        <mxPoint x="6030" y="388" as="targetPoint"/>
                        <Array as="points"/>
                    </mxGeometry>
                </mxCell>
                <mxCell id="4863" value="" style="edgeStyle=none;orthogonalLoop=1;jettySize=auto;html=1;dashed=1;dashPattern=8 8;entryX=0.85;entryY=0.431;entryDx=0;entryDy=0;entryPerimeter=0;" parent="1" target="4849" edge="1">
                    <mxGeometry width="80" relative="1" as="geometry">
                        <mxPoint x="6031.5" y="406.69" as="sourcePoint"/>
                        <mxPoint x="5794.5" y="409.5" as="targetPoint"/>
                        <Array as="points"/>
                    </mxGeometry>
                </mxCell>
                <mxCell id="4865" value="&lt;font style=&quot;font-size: 9px;&quot;&gt;Alternative&lt;/font&gt;" style="shape=umlFrame;whiteSpace=wrap;html=1;pointerEvents=0;width=60;height=15;" parent="1" vertex="1">
                    <mxGeometry x="5423" y="360" width="637" height="199.81" as="geometry"/>
                </mxCell>
                <mxCell id="4866" value="" style="shape=umlFrame;whiteSpace=wrap;html=1;pointerEvents=0;width=10;height=15;" parent="1" vertex="1">
                    <mxGeometry x="5423" y="499.81" width="637" height="60" as="geometry"/>
                </mxCell>
                <mxCell id="4867" value="&lt;font style=&quot;font-size: 10px;&quot;&gt;uniqe ISBN&lt;/font&gt;" style="text;html=1;align=center;verticalAlign=middle;resizable=0;points=[];autosize=1;strokeColor=none;fillColor=none;" parent="1" vertex="1">
                    <mxGeometry x="5458" y="379.5" width="70" height="30" as="geometry"/>
                </mxCell>
                <mxCell id="4868" value="" style="edgeStyle=none;orthogonalLoop=1;jettySize=auto;html=1;dashed=1;endArrow=none;endFill=0;entryX=0.088;entryY=1.015;entryDx=0;entryDy=0;entryPerimeter=0;" parent="1" edge="1">
                    <mxGeometry width="80" relative="1" as="geometry">
                        <mxPoint x="5793" y="255.94" as="sourcePoint"/>
                        <mxPoint x="5793.82" y="311.08000000000015" as="targetPoint"/>
                        <Array as="points"/>
                    </mxGeometry>
                </mxCell>
                <mxCell id="4869" value="&lt;span style=&quot;color: rgb(63, 63, 63); text-wrap-mode: nowrap;&quot;&gt;&lt;font style=&quot;font-size: 18px;&quot;&gt;Admin&lt;/font&gt;&lt;/span&gt;" style="whiteSpace=wrap;html=1;" parent="1" vertex="1">
                    <mxGeometry x="5532.5" y="208.06" width="80" height="40" as="geometry"/>
                </mxCell>
                <mxCell id="4870" value="&lt;span style=&quot;font-size: 18px; text-wrap-mode: nowrap;&quot;&gt;Book&lt;/span&gt;" style="whiteSpace=wrap;html=1;" parent="1" vertex="1">
                    <mxGeometry x="5741.75" y="208.31" width="101.5" height="40" as="geometry"/>
                </mxCell>
                <mxCell id="4871" value="&lt;span style=&quot;color: rgb(63, 63, 63); text-wrap-mode: nowrap;&quot;&gt;&lt;font style=&quot;font-size: 18px;&quot;&gt;Activity log&lt;/font&gt;&lt;/span&gt;" style="whiteSpace=wrap;html=1;" parent="1" vertex="1">
                    <mxGeometry x="5853" y="208.06" width="120" height="40" as="geometry"/>
                </mxCell>
                <mxCell id="4872" value="&lt;span style=&quot;color: rgb(63, 63, 63); text-wrap-mode: nowrap;&quot;&gt;&lt;font style=&quot;font-size: 18px;&quot;&gt;Notification&lt;/font&gt;&lt;/span&gt;" style="whiteSpace=wrap;html=1;" parent="1" vertex="1">
                    <mxGeometry x="5984" y="208.06" width="120" height="40" as="geometry"/>
                </mxCell>
                <mxCell id="4874" value="&lt;span style=&quot;color: rgb(0, 0, 0); text-align: left; text-wrap-mode: wrap;&quot;&gt;Add_Book()&lt;/span&gt;" style="text;html=1;align=center;verticalAlign=middle;resizable=0;points=[];autosize=1;strokeColor=none;fillColor=none;" parent="1" vertex="1">
                    <mxGeometry x="5662.5" y="267.69" width="90" height="30" as="geometry"/>
                </mxCell>
                <mxCell id="4875" value="" style="edgeStyle=orthogonalEdgeStyle;orthogonalLoop=1;jettySize=auto;html=1;curved=1;" parent="1" edge="1">
                    <mxGeometry width="80" relative="1" as="geometry">
                        <mxPoint x="5794.5" y="310.48" as="sourcePoint"/>
                        <mxPoint x="5791.5" y="343.51" as="targetPoint"/>
                        <Array as="points">
                            <mxPoint x="5818.5" y="310.7"/>
                            <mxPoint x="5818.5" y="343.7"/>
                        </Array>
                    </mxGeometry>
                </mxCell>
                <mxCell id="4876" value="&lt;span style=&quot;color: rgb(0, 0, 0); text-align: left; text-wrap-mode: wrap;&quot;&gt;Validate_data(ISBN)&lt;/span&gt;" style="text;html=1;align=center;verticalAlign=middle;resizable=0;points=[];autosize=1;strokeColor=none;fillColor=none;" parent="1" vertex="1">
                    <mxGeometry x="5673" y="312.31" width="130" height="30" as="geometry"/>
                </mxCell>
                <mxCell id="4879" value="&lt;span style=&quot;color: rgb(0, 0, 0); text-align: left; text-wrap-mode: wrap;&quot;&gt;set_log()&lt;/span&gt;" style="text;html=1;align=center;verticalAlign=middle;resizable=0;points=[];autosize=1;strokeColor=none;fillColor=none;" parent="1" vertex="1">
                    <mxGeometry x="5836" y="405.5" width="70" height="30" as="geometry"/>
                </mxCell>
                <mxCell id="4880" value="" style="edgeStyle=none;orthogonalLoop=1;jettySize=auto;html=1;dashed=1;dashPattern=8 8;" parent="1" edge="1">
                    <mxGeometry width="80" relative="1" as="geometry">
                        <mxPoint x="5793" y="459.81" as="sourcePoint"/>
                        <mxPoint x="5571.5" y="459.81" as="targetPoint"/>
                        <Array as="points"/>
                    </mxGeometry>
                </mxCell>
                <mxCell id="4881" value="" style="edgeStyle=none;orthogonalLoop=1;jettySize=auto;html=1;dashed=1;dashPattern=8 8;" parent="1" edge="1">
                    <mxGeometry width="80" relative="1" as="geometry">
                        <mxPoint x="5791.25" y="526.56" as="sourcePoint"/>
                        <mxPoint x="5569.75" y="526.56" as="targetPoint"/>
                        <Array as="points"/>
                    </mxGeometry>
                </mxCell>
                <mxCell id="4882" value="&lt;font style=&quot;font-size: 10px;&quot;&gt;Duplicat ISBN&lt;/font&gt;" style="text;html=1;align=center;verticalAlign=middle;resizable=0;points=[];autosize=1;strokeColor=none;fillColor=none;" parent="1" vertex="1">
                    <mxGeometry x="5450" y="496.56" width="90" height="30" as="geometry"/>
                </mxCell>
                <mxCell id="4884" value="&lt;span style=&quot;color: rgb(0, 0, 0); text-align: left; text-wrap-mode: wrap;&quot;&gt;view_notification()&lt;/span&gt;" style="text;html=1;align=center;verticalAlign=middle;resizable=0;points=[];autosize=1;strokeColor=none;fillColor=none;" parent="1" vertex="1">
                    <mxGeometry x="5611.25" y="496.56" width="120" height="30" as="geometry"/>
                </mxCell>
                <mxCell id="4885" value="" style="edgeStyle=none;orthogonalLoop=1;jettySize=auto;html=1;exitX=1.03;exitY=0.152;exitDx=0;exitDy=0;exitPerimeter=0;" parent="1" edge="1">
                    <mxGeometry width="80" relative="1" as="geometry">
                        <mxPoint x="5795" y="430.87" as="sourcePoint"/>
                        <mxPoint x="5910" y="430" as="targetPoint"/>
                        <Array as="points"/>
                    </mxGeometry>
                </mxCell>
                <mxCell id="4886" value="&lt;span style=&quot;color: rgb(0, 0, 0); text-align: left; text-wrap-mode: wrap;&quot;&gt;view_notification()&lt;/span&gt;" style="text;html=1;align=center;verticalAlign=middle;resizable=0;points=[];autosize=1;strokeColor=none;fillColor=none;" parent="1" vertex="1">
                    <mxGeometry x="5578" y="384.87" width="120" height="30" as="geometry"/>
                </mxCell>
                <mxCell id="4887" value="" style="rounded=1;whiteSpace=wrap;html=1;arcSize=0;fillColor=#E6E6E6;" parent="1" vertex="1">
                    <mxGeometry x="5518.5" y="1009.8700000000001" width="10" height="298.38" as="geometry"/>
                </mxCell>
                <mxCell id="4888" value="Actor" style="shape=umlActor;verticalLabelPosition=bottom;verticalAlign=top;html=1;" parent="1" vertex="1">
                    <mxGeometry x="5390" y="900.25" width="30" height="60" as="geometry"/>
                </mxCell>
                <mxCell id="4889" value="" style="edgeStyle=none;orthogonalLoop=1;jettySize=auto;html=1;dashed=1;endArrow=none;endFill=0;" parent="1" edge="1">
                    <mxGeometry width="80" relative="1" as="geometry">
                        <mxPoint x="5405.2" y="989.5" as="sourcePoint"/>
                        <mxPoint x="5405" y="1318.25" as="targetPoint"/>
                        <Array as="points"/>
                    </mxGeometry>
                </mxCell>
                <mxCell id="4890" value="" style="edgeStyle=none;orthogonalLoop=1;jettySize=auto;html=1;" parent="1" edge="1">
                    <mxGeometry width="80" relative="1" as="geometry">
                        <mxPoint x="5404.5" y="1009.8700000000001" as="sourcePoint"/>
                        <mxPoint x="5525.5" y="1010.6200000000001" as="targetPoint"/>
                        <Array as="points"/>
                    </mxGeometry>
                </mxCell>
                <mxCell id="4891" value="" style="edgeStyle=none;orthogonalLoop=1;jettySize=auto;html=1;dashed=1;endArrow=none;endFill=0;" parent="1" edge="1">
                    <mxGeometry width="80" relative="1" as="geometry">
                        <mxPoint x="5870" y="978.25" as="sourcePoint"/>
                        <mxPoint x="5870" y="1318.25" as="targetPoint"/>
                        <Array as="points"/>
                    </mxGeometry>
                </mxCell>
                <mxCell id="4892" value="" style="edgeStyle=none;orthogonalLoop=1;jettySize=auto;html=1;dashed=1;endArrow=none;endFill=0;" parent="1" edge="1">
                    <mxGeometry width="80" relative="1" as="geometry">
                        <mxPoint x="5990" y="983.1200000000001" as="sourcePoint"/>
                        <mxPoint x="5990" y="1318.25" as="targetPoint"/>
                        <Array as="points"/>
                    </mxGeometry>
                </mxCell>
                <mxCell id="4893" value="&lt;font style=&quot;font-size: 10px;&quot;&gt;Submit update book&lt;/font&gt;" style="text;html=1;align=center;verticalAlign=middle;resizable=0;points=[];autosize=1;strokeColor=none;fillColor=none;" parent="1" vertex="1">
                    <mxGeometry x="5407" y="983.1200000000001" width="110" height="30" as="geometry"/>
                </mxCell>
                <mxCell id="4894" value="" style="edgeStyle=none;orthogonalLoop=1;jettySize=auto;html=1;dashed=1;endArrow=none;endFill=0;exitX=0.443;exitY=1.01;exitDx=0;exitDy=0;exitPerimeter=0;" parent="1" source="4903" target="4887" edge="1">
                    <mxGeometry width="80" relative="1" as="geometry">
                        <mxPoint x="5524.5" y="988" as="sourcePoint"/>
                        <mxPoint x="5525" y="1349.25" as="targetPoint"/>
                        <Array as="points"/>
                    </mxGeometry>
                </mxCell>
                <mxCell id="4895" value="" style="edgeStyle=none;orthogonalLoop=1;jettySize=auto;html=1;dashed=1;endArrow=none;endFill=0;" parent="1" edge="1">
                    <mxGeometry width="80" relative="1" as="geometry">
                        <mxPoint x="5751.448586118251" y="1036.5" as="sourcePoint"/>
                        <mxPoint x="5750" y="1318.25" as="targetPoint"/>
                        <Array as="points"/>
                    </mxGeometry>
                </mxCell>
                <mxCell id="4896" value="" style="edgeStyle=none;orthogonalLoop=1;jettySize=auto;html=1;" parent="1" edge="1">
                    <mxGeometry width="80" relative="1" as="geometry">
                        <mxPoint x="5528.5" y="1021.75" as="sourcePoint"/>
                        <mxPoint x="5750" y="1022.25" as="targetPoint"/>
                        <Array as="points"/>
                    </mxGeometry>
                </mxCell>
                <mxCell id="4897" value="" style="edgeStyle=none;orthogonalLoop=1;jettySize=auto;html=1;exitX=1.03;exitY=0.152;exitDx=0;exitDy=0;exitPerimeter=0;" parent="1" edge="1">
                    <mxGeometry width="80" relative="1" as="geometry">
                        <mxPoint x="5751" y="1117.0300000000002" as="sourcePoint"/>
                        <mxPoint x="5987" y="1116.44" as="targetPoint"/>
                        <Array as="points"/>
                    </mxGeometry>
                </mxCell>
                <mxCell id="4898" value="" style="edgeStyle=none;orthogonalLoop=1;jettySize=auto;html=1;dashed=1;dashPattern=8 8;entryX=0.85;entryY=0.431;entryDx=0;entryDy=0;entryPerimeter=0;" parent="1" target="4887" edge="1">
                    <mxGeometry width="80" relative="1" as="geometry">
                        <mxPoint x="5988.5" y="1135.13" as="sourcePoint"/>
                        <mxPoint x="5751.5" y="1137.94" as="targetPoint"/>
                        <Array as="points"/>
                    </mxGeometry>
                </mxCell>
                <mxCell id="4899" value="&lt;font style=&quot;font-size: 9px;&quot;&gt;Alternative&lt;/font&gt;" style="shape=umlFrame;whiteSpace=wrap;html=1;pointerEvents=0;width=60;height=15;" parent="1" vertex="1">
                    <mxGeometry x="5380" y="1088.44" width="637" height="199.81" as="geometry"/>
                </mxCell>
                <mxCell id="4900" value="" style="shape=umlFrame;whiteSpace=wrap;html=1;pointerEvents=0;width=10;height=15;" parent="1" vertex="1">
                    <mxGeometry x="5380" y="1228.25" width="637" height="60" as="geometry"/>
                </mxCell>
                <mxCell id="4901" value="&lt;font style=&quot;font-size: 10px;&quot;&gt;uniqe ISBN&lt;/font&gt;" style="text;html=1;align=center;verticalAlign=middle;resizable=0;points=[];autosize=1;strokeColor=none;fillColor=none;" parent="1" vertex="1">
                    <mxGeometry x="5415" y="1107.94" width="70" height="30" as="geometry"/>
                </mxCell>
                <mxCell id="4902" value="" style="edgeStyle=none;orthogonalLoop=1;jettySize=auto;html=1;dashed=1;endArrow=none;endFill=0;entryX=0.088;entryY=1.015;entryDx=0;entryDy=0;entryPerimeter=0;" parent="1" edge="1">
                    <mxGeometry width="80" relative="1" as="geometry">
                        <mxPoint x="5750" y="984.3800000000001" as="sourcePoint"/>
                        <mxPoint x="5750.82" y="1039.5200000000002" as="targetPoint"/>
                        <Array as="points"/>
                    </mxGeometry>
                </mxCell>
                <mxCell id="4903" value="&lt;span style=&quot;color: rgb(63, 63, 63); text-wrap-mode: nowrap;&quot;&gt;&lt;font style=&quot;font-size: 18px;&quot;&gt;Admin&lt;/font&gt;&lt;/span&gt;" style="whiteSpace=wrap;html=1;" parent="1" vertex="1">
                    <mxGeometry x="5489.5" y="936.5" width="80" height="40" as="geometry"/>
                </mxCell>
                <mxCell id="4904" value="&lt;span style=&quot;font-size: 18px; text-wrap-mode: nowrap;&quot;&gt;Book&lt;/span&gt;" style="whiteSpace=wrap;html=1;" parent="1" vertex="1">
                    <mxGeometry x="5698.75" y="936.75" width="101.5" height="40" as="geometry"/>
                </mxCell>
                <mxCell id="4905" value="&lt;span style=&quot;color: rgb(63, 63, 63); text-wrap-mode: nowrap;&quot;&gt;&lt;font style=&quot;font-size: 18px;&quot;&gt;Activity log&lt;/font&gt;&lt;/span&gt;" style="whiteSpace=wrap;html=1;" parent="1" vertex="1">
                    <mxGeometry x="5810" y="936.5" width="120" height="40" as="geometry"/>
                </mxCell>
                <mxCell id="4906" value="&lt;span style=&quot;color: rgb(63, 63, 63); text-wrap-mode: nowrap;&quot;&gt;&lt;font style=&quot;font-size: 18px;&quot;&gt;Notification&lt;/font&gt;&lt;/span&gt;" style="whiteSpace=wrap;html=1;" parent="1" vertex="1">
                    <mxGeometry x="5941" y="936.5" width="120" height="40" as="geometry"/>
                </mxCell>
                <mxCell id="4907" value="&lt;span style=&quot;color: rgb(0, 0, 0); text-align: left; text-wrap-mode: wrap;&quot;&gt;Update_Book()&lt;/span&gt;" style="text;html=1;align=center;verticalAlign=middle;resizable=0;points=[];autosize=1;strokeColor=none;fillColor=none;" parent="1" vertex="1">
                    <mxGeometry x="5614.5" y="996.1300000000001" width="100" height="30" as="geometry"/>
                </mxCell>
                <mxCell id="4908" value="" style="edgeStyle=orthogonalEdgeStyle;orthogonalLoop=1;jettySize=auto;html=1;curved=1;" parent="1" edge="1">
                    <mxGeometry width="80" relative="1" as="geometry">
                        <mxPoint x="5751.5" y="1038.92" as="sourcePoint"/>
                        <mxPoint x="5748.5" y="1071.95" as="targetPoint"/>
                        <Array as="points">
                            <mxPoint x="5775.5" y="1039.14"/>
                            <mxPoint x="5775.5" y="1072.14"/>
                        </Array>
                    </mxGeometry>
                </mxCell>
                <mxCell id="4909" value="&lt;span style=&quot;color: rgb(0, 0, 0); text-align: left; text-wrap-mode: wrap;&quot;&gt;Validate_data(ISBN)&lt;/span&gt;" style="text;html=1;align=center;verticalAlign=middle;resizable=0;points=[];autosize=1;strokeColor=none;fillColor=none;" parent="1" vertex="1">
                    <mxGeometry x="5630" y="1040.75" width="130" height="30" as="geometry"/>
                </mxCell>
                <mxCell id="4910" value="&lt;span style=&quot;color: rgb(0, 0, 0); text-align: left; text-wrap-mode: wrap;&quot;&gt;set_log()&lt;/span&gt;" style="text;html=1;align=center;verticalAlign=middle;resizable=0;points=[];autosize=1;strokeColor=none;fillColor=none;" parent="1" vertex="1">
                    <mxGeometry x="5793" y="1133.94" width="70" height="30" as="geometry"/>
                </mxCell>
                <mxCell id="4911" value="" style="edgeStyle=none;orthogonalLoop=1;jettySize=auto;html=1;dashed=1;dashPattern=8 8;" parent="1" edge="1">
                    <mxGeometry width="80" relative="1" as="geometry">
                        <mxPoint x="5750" y="1188.25" as="sourcePoint"/>
                        <mxPoint x="5528.5" y="1188.25" as="targetPoint"/>
                        <Array as="points"/>
                    </mxGeometry>
                </mxCell>
                <mxCell id="4912" value="" style="edgeStyle=none;orthogonalLoop=1;jettySize=auto;html=1;dashed=1;dashPattern=8 8;" parent="1" edge="1">
                    <mxGeometry width="80" relative="1" as="geometry">
                        <mxPoint x="5748.25" y="1255" as="sourcePoint"/>
                        <mxPoint x="5526.75" y="1255" as="targetPoint"/>
                        <Array as="points"/>
                    </mxGeometry>
                </mxCell>
                <mxCell id="4913" value="&lt;font style=&quot;font-size: 10px;&quot;&gt;Duplicat ISBN&lt;/font&gt;" style="text;html=1;align=center;verticalAlign=middle;resizable=0;points=[];autosize=1;strokeColor=none;fillColor=none;" parent="1" vertex="1">
                    <mxGeometry x="5407" y="1225" width="90" height="30" as="geometry"/>
                </mxCell>
                <mxCell id="4914" value="&lt;span style=&quot;color: rgb(0, 0, 0); text-align: left; text-wrap-mode: wrap;&quot;&gt;view_notification()&lt;/span&gt;" style="text;html=1;align=center;verticalAlign=middle;resizable=0;points=[];autosize=1;strokeColor=none;fillColor=none;" parent="1" vertex="1">
                    <mxGeometry x="5568.25" y="1225" width="120" height="30" as="geometry"/>
                </mxCell>
                <mxCell id="4915" value="" style="edgeStyle=none;orthogonalLoop=1;jettySize=auto;html=1;exitX=1.03;exitY=0.152;exitDx=0;exitDy=0;exitPerimeter=0;" parent="1" edge="1">
                    <mxGeometry width="80" relative="1" as="geometry">
                        <mxPoint x="5752" y="1159.31" as="sourcePoint"/>
                        <mxPoint x="5867" y="1158.44" as="targetPoint"/>
                        <Array as="points"/>
                    </mxGeometry>
                </mxCell>
                <mxCell id="4916" value="&lt;span style=&quot;color: rgb(0, 0, 0); text-align: left; text-wrap-mode: wrap;&quot;&gt;view_notification()&lt;/span&gt;" style="text;html=1;align=center;verticalAlign=middle;resizable=0;points=[];autosize=1;strokeColor=none;fillColor=none;" parent="1" vertex="1">
                    <mxGeometry x="5535" y="1113.31" width="120" height="30" as="geometry"/>
                </mxCell>
                <mxCell id="4917" value="" style="rounded=1;whiteSpace=wrap;html=1;arcSize=0;fillColor=#E6E6E6;" parent="1" vertex="1">
                    <mxGeometry x="5518.5" y="1584.21" width="10" height="298.38" as="geometry"/>
                </mxCell>
                <mxCell id="4918" value="Actor" style="shape=umlActor;verticalLabelPosition=bottom;verticalAlign=top;html=1;" parent="1" vertex="1">
                    <mxGeometry x="5390" y="1474.5900000000001" width="30" height="60" as="geometry"/>
                </mxCell>
                <mxCell id="4919" value="" style="edgeStyle=none;orthogonalLoop=1;jettySize=auto;html=1;dashed=1;endArrow=none;endFill=0;" parent="1" edge="1">
                    <mxGeometry width="80" relative="1" as="geometry">
                        <mxPoint x="5405.2" y="1563.8400000000001" as="sourcePoint"/>
                        <mxPoint x="5405" y="1892.5900000000001" as="targetPoint"/>
                        <Array as="points"/>
                    </mxGeometry>
                </mxCell>
                <mxCell id="4920" value="" style="edgeStyle=none;orthogonalLoop=1;jettySize=auto;html=1;" parent="1" edge="1">
                    <mxGeometry width="80" relative="1" as="geometry">
                        <mxPoint x="5404.5" y="1584.21" as="sourcePoint"/>
                        <mxPoint x="5525.5" y="1584.96" as="targetPoint"/>
                        <Array as="points"/>
                    </mxGeometry>
                </mxCell>
                <mxCell id="4921" value="" style="edgeStyle=none;orthogonalLoop=1;jettySize=auto;html=1;dashed=1;endArrow=none;endFill=0;" parent="1" edge="1">
                    <mxGeometry width="80" relative="1" as="geometry">
                        <mxPoint x="5870" y="1552.5900000000001" as="sourcePoint"/>
                        <mxPoint x="5870" y="1892.5900000000001" as="targetPoint"/>
                        <Array as="points"/>
                    </mxGeometry>
                </mxCell>
                <mxCell id="4922" value="" style="edgeStyle=none;orthogonalLoop=1;jettySize=auto;html=1;dashed=1;endArrow=none;endFill=0;" parent="1" edge="1">
                    <mxGeometry width="80" relative="1" as="geometry">
                        <mxPoint x="5990" y="1557.46" as="sourcePoint"/>
                        <mxPoint x="5990" y="1892.5900000000001" as="targetPoint"/>
                        <Array as="points"/>
                    </mxGeometry>
                </mxCell>
                <mxCell id="4923" value="&lt;font style=&quot;font-size: 10px;&quot;&gt;Submit delete book&lt;/font&gt;" style="text;html=1;align=center;verticalAlign=middle;resizable=0;points=[];autosize=1;strokeColor=none;fillColor=none;" parent="1" vertex="1">
                    <mxGeometry x="5407" y="1557.46" width="110" height="30" as="geometry"/>
                </mxCell>
                <mxCell id="4924" value="" style="edgeStyle=none;orthogonalLoop=1;jettySize=auto;html=1;dashed=1;endArrow=none;endFill=0;exitX=0.443;exitY=1.01;exitDx=0;exitDy=0;exitPerimeter=0;" parent="1" source="4933" target="4917" edge="1">
                    <mxGeometry width="80" relative="1" as="geometry">
                        <mxPoint x="5524.5" y="1562.3400000000001" as="sourcePoint"/>
                        <mxPoint x="5525" y="1923.5900000000001" as="targetPoint"/>
                        <Array as="points"/>
                    </mxGeometry>
                </mxCell>
                <mxCell id="4925" value="" style="edgeStyle=none;orthogonalLoop=1;jettySize=auto;html=1;dashed=1;endArrow=none;endFill=0;" parent="1" edge="1">
                    <mxGeometry width="80" relative="1" as="geometry">
                        <mxPoint x="5751.448586118251" y="1610.8400000000001" as="sourcePoint"/>
                        <mxPoint x="5750" y="1892.5900000000001" as="targetPoint"/>
                        <Array as="points"/>
                    </mxGeometry>
                </mxCell>
                <mxCell id="4926" value="" style="edgeStyle=none;orthogonalLoop=1;jettySize=auto;html=1;" parent="1" edge="1">
                    <mxGeometry width="80" relative="1" as="geometry">
                        <mxPoint x="5528.5" y="1596.0900000000001" as="sourcePoint"/>
                        <mxPoint x="5750" y="1596.5900000000001" as="targetPoint"/>
                        <Array as="points"/>
                    </mxGeometry>
                </mxCell>
                <mxCell id="4927" value="" style="edgeStyle=none;orthogonalLoop=1;jettySize=auto;html=1;exitX=1.03;exitY=0.152;exitDx=0;exitDy=0;exitPerimeter=0;" parent="1" edge="1">
                    <mxGeometry width="80" relative="1" as="geometry">
                        <mxPoint x="5751" y="1691.3700000000003" as="sourcePoint"/>
                        <mxPoint x="5987" y="1690.7800000000002" as="targetPoint"/>
                        <Array as="points"/>
                    </mxGeometry>
                </mxCell>
                <mxCell id="4928" value="" style="edgeStyle=none;orthogonalLoop=1;jettySize=auto;html=1;dashed=1;dashPattern=8 8;entryX=0.85;entryY=0.431;entryDx=0;entryDy=0;entryPerimeter=0;" parent="1" target="4917" edge="1">
                    <mxGeometry width="80" relative="1" as="geometry">
                        <mxPoint x="5988.5" y="1709.4700000000003" as="sourcePoint"/>
                        <mxPoint x="5751.5" y="1712.2800000000002" as="targetPoint"/>
                        <Array as="points"/>
                    </mxGeometry>
                </mxCell>
                <mxCell id="4929" value="&lt;font style=&quot;font-size: 9px;&quot;&gt;Alternative&lt;/font&gt;" style="shape=umlFrame;whiteSpace=wrap;html=1;pointerEvents=0;width=60;height=15;" parent="1" vertex="1">
                    <mxGeometry x="5380" y="1662.7800000000002" width="637" height="199.81" as="geometry"/>
                </mxCell>
                <mxCell id="4930" value="" style="shape=umlFrame;whiteSpace=wrap;html=1;pointerEvents=0;width=10;height=15;" parent="1" vertex="1">
                    <mxGeometry x="5380" y="1802.5900000000001" width="637" height="60" as="geometry"/>
                </mxCell>
                <mxCell id="4931" value="&lt;font style=&quot;font-size: 10px;&quot;&gt;uniqe ISBN&lt;/font&gt;" style="text;html=1;align=center;verticalAlign=middle;resizable=0;points=[];autosize=1;strokeColor=none;fillColor=none;" parent="1" vertex="1">
                    <mxGeometry x="5415" y="1682.2800000000002" width="70" height="30" as="geometry"/>
                </mxCell>
                <mxCell id="4932" value="" style="edgeStyle=none;orthogonalLoop=1;jettySize=auto;html=1;dashed=1;endArrow=none;endFill=0;entryX=0.088;entryY=1.015;entryDx=0;entryDy=0;entryPerimeter=0;" parent="1" edge="1">
                    <mxGeometry width="80" relative="1" as="geometry">
                        <mxPoint x="5750" y="1558.7200000000003" as="sourcePoint"/>
                        <mxPoint x="5750.82" y="1613.8600000000001" as="targetPoint"/>
                        <Array as="points"/>
                    </mxGeometry>
                </mxCell>
                <mxCell id="4933" value="&lt;span style=&quot;color: rgb(63, 63, 63); text-wrap-mode: nowrap;&quot;&gt;&lt;font style=&quot;font-size: 18px;&quot;&gt;Admin&lt;/font&gt;&lt;/span&gt;" style="whiteSpace=wrap;html=1;" parent="1" vertex="1">
                    <mxGeometry x="5489.5" y="1510.8400000000001" width="80" height="40" as="geometry"/>
                </mxCell>
                <mxCell id="4934" value="&lt;span style=&quot;font-size: 18px; text-wrap-mode: nowrap;&quot;&gt;Book&lt;/span&gt;" style="whiteSpace=wrap;html=1;" parent="1" vertex="1">
                    <mxGeometry x="5698.75" y="1511.0900000000001" width="101.5" height="40" as="geometry"/>
                </mxCell>
                <mxCell id="4935" value="&lt;span style=&quot;color: rgb(63, 63, 63); text-wrap-mode: nowrap;&quot;&gt;&lt;font style=&quot;font-size: 18px;&quot;&gt;Activity log&lt;/font&gt;&lt;/span&gt;" style="whiteSpace=wrap;html=1;" parent="1" vertex="1">
                    <mxGeometry x="5810" y="1510.8400000000001" width="120" height="40" as="geometry"/>
                </mxCell>
                <mxCell id="4936" value="&lt;span style=&quot;color: rgb(63, 63, 63); text-wrap-mode: nowrap;&quot;&gt;&lt;font style=&quot;font-size: 18px;&quot;&gt;Notification&lt;/font&gt;&lt;/span&gt;" style="whiteSpace=wrap;html=1;" parent="1" vertex="1">
                    <mxGeometry x="5941" y="1510.8400000000001" width="120" height="40" as="geometry"/>
                </mxCell>
                <mxCell id="4937" value="&lt;span style=&quot;color: rgb(0, 0, 0); text-align: left; text-wrap-mode: wrap;&quot;&gt;Delete_Book()&lt;/span&gt;" style="text;html=1;align=center;verticalAlign=middle;resizable=0;points=[];autosize=1;strokeColor=none;fillColor=none;" parent="1" vertex="1">
                    <mxGeometry x="5614.5" y="1570.4700000000003" width="100" height="30" as="geometry"/>
                </mxCell>
                <mxCell id="4940" value="&lt;span style=&quot;color: rgb(0, 0, 0); text-align: left; text-wrap-mode: wrap;&quot;&gt;set_log()&lt;/span&gt;" style="text;html=1;align=center;verticalAlign=middle;resizable=0;points=[];autosize=1;strokeColor=none;fillColor=none;" parent="1" vertex="1">
                    <mxGeometry x="5793" y="1708.2800000000002" width="70" height="30" as="geometry"/>
                </mxCell>
                <mxCell id="4941" value="" style="edgeStyle=none;orthogonalLoop=1;jettySize=auto;html=1;dashed=1;dashPattern=8 8;" parent="1" edge="1">
                    <mxGeometry width="80" relative="1" as="geometry">
                        <mxPoint x="5750" y="1762.5900000000001" as="sourcePoint"/>
                        <mxPoint x="5528.5" y="1762.5900000000001" as="targetPoint"/>
                        <Array as="points"/>
                    </mxGeometry>
                </mxCell>
                <mxCell id="4942" value="" style="edgeStyle=none;orthogonalLoop=1;jettySize=auto;html=1;dashed=1;dashPattern=8 8;" parent="1" edge="1">
                    <mxGeometry width="80" relative="1" as="geometry">
                        <mxPoint x="5748.25" y="1829.3400000000001" as="sourcePoint"/>
                        <mxPoint x="5526.75" y="1829.3400000000001" as="targetPoint"/>
                        <Array as="points"/>
                    </mxGeometry>
                </mxCell>
                <mxCell id="4943" value="&lt;font style=&quot;font-size: 10px;&quot;&gt;Duplicat ISBN&lt;/font&gt;" style="text;html=1;align=center;verticalAlign=middle;resizable=0;points=[];autosize=1;strokeColor=none;fillColor=none;" parent="1" vertex="1">
                    <mxGeometry x="5407" y="1799.3400000000001" width="90" height="30" as="geometry"/>
                </mxCell>
                <mxCell id="4944" value="&lt;span style=&quot;color: rgb(0, 0, 0); text-align: left; text-wrap-mode: wrap;&quot;&gt;view_notification()&lt;/span&gt;" style="text;html=1;align=center;verticalAlign=middle;resizable=0;points=[];autosize=1;strokeColor=none;fillColor=none;" parent="1" vertex="1">
                    <mxGeometry x="5568.25" y="1799.3400000000001" width="120" height="30" as="geometry"/>
                </mxCell>
                <mxCell id="4945" value="" style="edgeStyle=none;orthogonalLoop=1;jettySize=auto;html=1;exitX=1.03;exitY=0.152;exitDx=0;exitDy=0;exitPerimeter=0;" parent="1" edge="1">
                    <mxGeometry width="80" relative="1" as="geometry">
                        <mxPoint x="5752" y="1733.65" as="sourcePoint"/>
                        <mxPoint x="5867" y="1732.7800000000002" as="targetPoint"/>
                        <Array as="points"/>
                    </mxGeometry>
                </mxCell>
                <mxCell id="4946" value="&lt;span style=&quot;color: rgb(0, 0, 0); text-align: left; text-wrap-mode: wrap;&quot;&gt;view_notification()&lt;/span&gt;" style="text;html=1;align=center;verticalAlign=middle;resizable=0;points=[];autosize=1;strokeColor=none;fillColor=none;" parent="1" vertex="1">
                    <mxGeometry x="5535" y="1687.65" width="120" height="30" as="geometry"/>
                </mxCell>
                <mxCell id="4947" value="" style="rounded=1;whiteSpace=wrap;html=1;arcSize=0;fillColor=#E6E6E6;" parent="1" vertex="1">
                    <mxGeometry x="5539.5" y="2804.87" width="10" height="298.38" as="geometry"/>
                </mxCell>
                <mxCell id="4948" value="Actor" style="shape=umlActor;verticalLabelPosition=bottom;verticalAlign=top;html=1;" parent="1" vertex="1">
                    <mxGeometry x="5411" y="2695.25" width="30" height="60" as="geometry"/>
                </mxCell>
                <mxCell id="4949" value="" style="edgeStyle=none;orthogonalLoop=1;jettySize=auto;html=1;dashed=1;endArrow=none;endFill=0;" parent="1" edge="1">
                    <mxGeometry width="80" relative="1" as="geometry">
                        <mxPoint x="5426.2" y="2784.5" as="sourcePoint"/>
                        <mxPoint x="5426" y="3113.25" as="targetPoint"/>
                        <Array as="points"/>
                    </mxGeometry>
                </mxCell>
                <mxCell id="4950" value="" style="edgeStyle=none;orthogonalLoop=1;jettySize=auto;html=1;" parent="1" edge="1">
                    <mxGeometry width="80" relative="1" as="geometry">
                        <mxPoint x="5425.5" y="2804.87" as="sourcePoint"/>
                        <mxPoint x="5546.5" y="2805.62" as="targetPoint"/>
                        <Array as="points"/>
                    </mxGeometry>
                </mxCell>
                <mxCell id="4951" value="" style="edgeStyle=none;orthogonalLoop=1;jettySize=auto;html=1;dashed=1;endArrow=none;endFill=0;" parent="1" edge="1">
                    <mxGeometry width="80" relative="1" as="geometry">
                        <mxPoint x="5891" y="2773.25" as="sourcePoint"/>
                        <mxPoint x="5891" y="3113.25" as="targetPoint"/>
                        <Array as="points"/>
                    </mxGeometry>
                </mxCell>
                <mxCell id="4952" value="" style="edgeStyle=none;orthogonalLoop=1;jettySize=auto;html=1;dashed=1;endArrow=none;endFill=0;" parent="1" edge="1">
                    <mxGeometry width="80" relative="1" as="geometry">
                        <mxPoint x="6011" y="2778.12" as="sourcePoint"/>
                        <mxPoint x="6011" y="3113.25" as="targetPoint"/>
                        <Array as="points"/>
                    </mxGeometry>
                </mxCell>
                <mxCell id="4953" value="&lt;font style=&quot;font-size: 10px;&quot;&gt;Submit update profile&lt;/font&gt;" style="text;html=1;align=center;verticalAlign=middle;resizable=0;points=[];autosize=1;strokeColor=none;fillColor=none;" parent="1" vertex="1">
                    <mxGeometry x="5423" y="2778.12" width="120" height="30" as="geometry"/>
                </mxCell>
                <mxCell id="4954" value="" style="edgeStyle=none;orthogonalLoop=1;jettySize=auto;html=1;dashed=1;endArrow=none;endFill=0;exitX=0.443;exitY=1.01;exitDx=0;exitDy=0;exitPerimeter=0;" parent="1" source="4963" target="4947" edge="1">
                    <mxGeometry width="80" relative="1" as="geometry">
                        <mxPoint x="5545.5" y="2783" as="sourcePoint"/>
                        <mxPoint x="5546" y="3144.25" as="targetPoint"/>
                        <Array as="points"/>
                    </mxGeometry>
                </mxCell>
                <mxCell id="4955" value="" style="edgeStyle=none;orthogonalLoop=1;jettySize=auto;html=1;dashed=1;endArrow=none;endFill=0;" parent="1" edge="1">
                    <mxGeometry width="80" relative="1" as="geometry">
                        <mxPoint x="5772.448586118251" y="2831.5" as="sourcePoint"/>
                        <mxPoint x="5771" y="3113.25" as="targetPoint"/>
                        <Array as="points"/>
                    </mxGeometry>
                </mxCell>
                <mxCell id="4956" value="" style="edgeStyle=none;orthogonalLoop=1;jettySize=auto;html=1;" parent="1" edge="1">
                    <mxGeometry width="80" relative="1" as="geometry">
                        <mxPoint x="5549.5" y="2816.75" as="sourcePoint"/>
                        <mxPoint x="5771" y="2817.25" as="targetPoint"/>
                        <Array as="points"/>
                    </mxGeometry>
                </mxCell>
                <mxCell id="4957" value="" style="edgeStyle=none;orthogonalLoop=1;jettySize=auto;html=1;exitX=1.03;exitY=0.152;exitDx=0;exitDy=0;exitPerimeter=0;" parent="1" edge="1">
                    <mxGeometry width="80" relative="1" as="geometry">
                        <mxPoint x="5772" y="2912.0299999999997" as="sourcePoint"/>
                        <mxPoint x="6008" y="2911.4399999999996" as="targetPoint"/>
                        <Array as="points"/>
                    </mxGeometry>
                </mxCell>
                <mxCell id="4958" value="" style="edgeStyle=none;orthogonalLoop=1;jettySize=auto;html=1;dashed=1;dashPattern=8 8;" parent="1" edge="1">
                    <mxGeometry width="80" relative="1" as="geometry">
                        <mxPoint x="6009.5" y="2930.13" as="sourcePoint"/>
                        <mxPoint x="6150" y="2930" as="targetPoint"/>
                        <Array as="points"/>
                    </mxGeometry>
                </mxCell>
                <mxCell id="4959" value="&lt;font style=&quot;font-size: 9px;&quot;&gt;Alternative&lt;/font&gt;" style="shape=umlFrame;whiteSpace=wrap;html=1;pointerEvents=0;width=60;height=15;" parent="1" vertex="1">
                    <mxGeometry x="5401" y="2883.44" width="839" height="236.56" as="geometry"/>
                </mxCell>
                <mxCell id="4960" value="" style="shape=umlFrame;whiteSpace=wrap;html=1;pointerEvents=0;width=10;height=15;" parent="1" vertex="1">
                    <mxGeometry x="5401" y="3050" width="839" height="70" as="geometry"/>
                </mxCell>
                <mxCell id="4961" value="&lt;font style=&quot;font-size: 10px;&quot;&gt;Valid Data&lt;/font&gt;" style="text;html=1;align=center;verticalAlign=middle;resizable=0;points=[];autosize=1;strokeColor=none;fillColor=none;" parent="1" vertex="1">
                    <mxGeometry x="5436" y="2902.9399999999996" width="70" height="30" as="geometry"/>
                </mxCell>
                <mxCell id="4962" value="" style="edgeStyle=none;orthogonalLoop=1;jettySize=auto;html=1;dashed=1;endArrow=none;endFill=0;entryX=0.088;entryY=1.015;entryDx=0;entryDy=0;entryPerimeter=0;" parent="1" edge="1">
                    <mxGeometry width="80" relative="1" as="geometry">
                        <mxPoint x="5771" y="2779.38" as="sourcePoint"/>
                        <mxPoint x="5771.82" y="2834.52" as="targetPoint"/>
                        <Array as="points"/>
                    </mxGeometry>
                </mxCell>
                <mxCell id="4963" value="&lt;span style=&quot;color: rgb(63, 63, 63); text-wrap-mode: nowrap;&quot;&gt;&lt;font style=&quot;font-size: 18px;&quot;&gt;Admin&lt;/font&gt;&lt;/span&gt;" style="whiteSpace=wrap;html=1;" parent="1" vertex="1">
                    <mxGeometry x="5510.5" y="2731.5" width="80" height="40" as="geometry"/>
                </mxCell>
                <mxCell id="4964" value="&lt;span style=&quot;font-size: 18px; text-wrap-mode: nowrap;&quot;&gt;User&lt;/span&gt;" style="whiteSpace=wrap;html=1;" parent="1" vertex="1">
                    <mxGeometry x="5719.75" y="2731.75" width="101.5" height="40" as="geometry"/>
                </mxCell>
                <mxCell id="4965" value="&lt;span style=&quot;color: rgb(63, 63, 63); text-wrap-mode: nowrap;&quot;&gt;&lt;font style=&quot;font-size: 18px;&quot;&gt;Activity log&lt;/font&gt;&lt;/span&gt;" style="whiteSpace=wrap;html=1;" parent="1" vertex="1">
                    <mxGeometry x="5831" y="2731.5" width="120" height="40" as="geometry"/>
                </mxCell>
                <mxCell id="4966" value="&lt;span style=&quot;color: rgb(63, 63, 63); text-wrap-mode: nowrap;&quot;&gt;&lt;font style=&quot;font-size: 18px;&quot;&gt;Notification&lt;/font&gt;&lt;/span&gt;" style="whiteSpace=wrap;html=1;" parent="1" vertex="1">
                    <mxGeometry x="5962" y="2731.5" width="120" height="40" as="geometry"/>
                </mxCell>
                <mxCell id="4967" value="&lt;span style=&quot;color: rgb(0, 0, 0); text-align: left; text-wrap-mode: wrap;&quot;&gt;Update_reader_profile()&lt;/span&gt;" style="text;html=1;align=center;verticalAlign=middle;resizable=0;points=[];autosize=1;strokeColor=none;fillColor=none;" parent="1" vertex="1">
                    <mxGeometry x="5610.5" y="2791.13" width="150" height="30" as="geometry"/>
                </mxCell>
                <mxCell id="4968" value="" style="edgeStyle=orthogonalEdgeStyle;orthogonalLoop=1;jettySize=auto;html=1;curved=1;" parent="1" edge="1">
                    <mxGeometry width="80" relative="1" as="geometry">
                        <mxPoint x="5772.5" y="2833.92" as="sourcePoint"/>
                        <mxPoint x="5769.5" y="2866.95" as="targetPoint"/>
                        <Array as="points">
                            <mxPoint x="5796.5" y="2834.14"/>
                            <mxPoint x="5796.5" y="2867.14"/>
                        </Array>
                    </mxGeometry>
                </mxCell>
                <mxCell id="4969" value="&lt;span style=&quot;color: rgb(0, 0, 0); text-align: left; text-wrap-mode: wrap;&quot;&gt;Validate_data()&lt;/span&gt;" style="text;html=1;align=center;verticalAlign=middle;resizable=0;points=[];autosize=1;strokeColor=none;fillColor=none;" parent="1" vertex="1">
                    <mxGeometry x="5666" y="2835.75" width="100" height="30" as="geometry"/>
                </mxCell>
                <mxCell id="4970" value="&lt;span style=&quot;color: rgb(0, 0, 0); text-align: left; text-wrap-mode: wrap;&quot;&gt;set_log()&lt;/span&gt;" style="text;html=1;align=center;verticalAlign=middle;resizable=0;points=[];autosize=1;strokeColor=none;fillColor=none;" parent="1" vertex="1">
                    <mxGeometry x="5820" y="2974.7199999999993" width="70" height="30" as="geometry"/>
                </mxCell>
                <mxCell id="4971" value="" style="edgeStyle=none;orthogonalLoop=1;jettySize=auto;html=1;dashed=1;dashPattern=8 8;" parent="1" edge="1">
                    <mxGeometry width="80" relative="1" as="geometry">
                        <mxPoint x="5890" y="3010" as="sourcePoint"/>
                        <mxPoint x="5770" y="3010" as="targetPoint"/>
                        <Array as="points"/>
                    </mxGeometry>
                </mxCell>
                <mxCell id="4972" value="" style="edgeStyle=none;orthogonalLoop=1;jettySize=auto;html=1;dashed=1;dashPattern=8 8;" parent="1" edge="1">
                    <mxGeometry width="80" relative="1" as="geometry">
                        <mxPoint x="5771" y="3095" as="sourcePoint"/>
                        <mxPoint x="5549.5" y="3095" as="targetPoint"/>
                        <Array as="points"/>
                    </mxGeometry>
                </mxCell>
                <mxCell id="4973" value="&lt;font style=&quot;font-size: 10px;&quot;&gt;Unvalid Data&lt;/font&gt;" style="text;html=1;align=center;verticalAlign=middle;resizable=0;points=[];autosize=1;strokeColor=none;fillColor=none;" parent="1" vertex="1">
                    <mxGeometry x="5431" y="3050" width="80" height="30" as="geometry"/>
                </mxCell>
                <mxCell id="4974" value="&lt;span style=&quot;color: rgb(0, 0, 0); text-align: left; text-wrap-mode: wrap;&quot;&gt;view_notification()&lt;/span&gt;" style="text;html=1;align=center;verticalAlign=middle;resizable=0;points=[];autosize=1;strokeColor=none;fillColor=none;" parent="1" vertex="1">
                    <mxGeometry x="5555" y="3068.12" width="120" height="30" as="geometry"/>
                </mxCell>
                <mxCell id="4975" value="" style="edgeStyle=none;orthogonalLoop=1;jettySize=auto;html=1;" parent="1" edge="1">
                    <mxGeometry width="80" relative="1" as="geometry">
                        <mxPoint x="5770" y="3000" as="sourcePoint"/>
                        <mxPoint x="5890" y="2999" as="targetPoint"/>
                        <Array as="points"/>
                    </mxGeometry>
                </mxCell>
                <mxCell id="4976" value="&lt;span style=&quot;color: rgb(0, 0, 0); text-align: left; text-wrap-mode: wrap;&quot;&gt;view_notification()&lt;/span&gt;" style="text;html=1;align=center;verticalAlign=middle;resizable=0;points=[];autosize=1;strokeColor=none;fillColor=none;" parent="1" vertex="1">
                    <mxGeometry x="6030" y="2905.9999999999995" width="120" height="30" as="geometry"/>
                </mxCell>
                <mxCell id="4977" value="&lt;span style=&quot;font-size: 18px; text-wrap-mode: nowrap;&quot;&gt;Reader&lt;/span&gt;" style="whiteSpace=wrap;html=1;" parent="1" vertex="1">
                    <mxGeometry x="6097" y="2732" width="101.5" height="40" as="geometry"/>
                </mxCell>
                <mxCell id="4978" value="" style="edgeStyle=none;orthogonalLoop=1;jettySize=auto;html=1;dashed=1;endArrow=none;endFill=0;" parent="1" edge="1">
                    <mxGeometry width="80" relative="1" as="geometry">
                        <mxPoint x="6147.19" y="2776.38" as="sourcePoint"/>
                        <mxPoint x="6147.19" y="3111.51" as="targetPoint"/>
                        <Array as="points"/>
                    </mxGeometry>
                </mxCell>
                <mxCell id="4979" value="&lt;span style=&quot;color: rgb(0, 0, 0); text-align: left; text-wrap-mode: wrap;&quot;&gt;send_notification()&lt;/span&gt;" style="text;html=1;align=center;verticalAlign=middle;resizable=0;points=[];autosize=1;strokeColor=none;fillColor=none;" parent="1" vertex="1">
                    <mxGeometry x="5883" y="2889.4399999999996" width="120" height="30" as="geometry"/>
                </mxCell>
                <mxCell id="4980" value="" style="edgeStyle=none;orthogonalLoop=1;jettySize=auto;html=1;exitX=1.03;exitY=0.152;exitDx=0;exitDy=0;exitPerimeter=0;" parent="1" edge="1">
                    <mxGeometry width="80" relative="1" as="geometry">
                        <mxPoint x="5773" y="2944.3399999999997" as="sourcePoint"/>
                        <mxPoint x="6009" y="2943.7499999999995" as="targetPoint"/>
                        <Array as="points"/>
                    </mxGeometry>
                </mxCell>
                <mxCell id="4981" value="" style="edgeStyle=none;orthogonalLoop=1;jettySize=auto;html=1;dashed=1;dashPattern=8 8;entryX=0.962;entryY=0.553;entryDx=0;entryDy=0;entryPerimeter=0;" parent="1" target="4947" edge="1">
                    <mxGeometry width="80" relative="1" as="geometry">
                        <mxPoint x="6011" y="2970" as="sourcePoint"/>
                        <mxPoint x="5789.5" y="2970" as="targetPoint"/>
                        <Array as="points"/>
                    </mxGeometry>
                </mxCell>
                <mxCell id="4982" value="&lt;span style=&quot;color: rgb(0, 0, 0); text-align: left; text-wrap-mode: wrap;&quot;&gt;send_notification()&lt;/span&gt;" style="text;html=1;align=center;verticalAlign=middle;resizable=0;points=[];autosize=1;strokeColor=none;fillColor=none;" parent="1" vertex="1">
                    <mxGeometry x="5883" y="2921.3699999999994" width="120" height="30" as="geometry"/>
                </mxCell>
                <mxCell id="4983" value="&lt;span style=&quot;color: rgb(0, 0, 0); text-align: left; text-wrap-mode: wrap;&quot;&gt;view_notification()&lt;/span&gt;" style="text;html=1;align=center;verticalAlign=middle;resizable=0;points=[];autosize=1;strokeColor=none;fillColor=none;" parent="1" vertex="1">
                    <mxGeometry x="5549.5" y="2946.2499999999995" width="120" height="30" as="geometry"/>
                </mxCell>
            </root>
        </mxGraphModel>
    </diagram>
</mxfile>